<svg xmlns="http://www.w3.org/2000/svg" viewBox="0 0 145.08 111.8"><defs><style>.cls-1{fill:#fff;}.cls-2{fill:#bcbcbc;}</style></defs><g id="レイヤー_2" data-name="レイヤー 2"><g id="レイヤー_4" data-name="レイヤー 4"><path class="cls-1" d="M120.3,28.73c0-.24-.15-.53-.17-.77s.24-.51.21-.74.09-.5.06-.74-.12-.47-.16-.71.37-.57.32-.81-.37-.42-.42-.65-.35-.42-.41-.65.3-.59.23-.82-1.38-.06-1.46-.29.89-.81.81-1-.21-.44-.3-.67,0-.52-.11-.74-.64-.25-.74-.47-.59-.24-.69-.46.54-.81.43-1-.67-.19-.79-.4,0-.58-.08-.78-.47-.28-.6-.48-.22-.43-.35-.63.24-.75.1-.95-.32-.38-.46-.57-1.12.24-1.27.05.09-.68-.06-.86-.57-.15-.73-.33-.19-.46-.35-.64.12-.77,0-.94-.89.2-1.06,0,.09-.78-.09-.94-1,.39-1.19.23,0-.7-.19-.86,0-.79-.14-.94-1,.47-1.18.32.13-1-.06-1.1-.62,0-.82-.11-.42-.22-.62-.35-.26-.49-.46-.62-.21-.6-.41-.72-.57,0-.78-.1-.46-.18-.67-.29-.6.12-.82,0-.21-.66-.43-.76-.66.29-.88.19-.09-1-.31-1.11-.94,1.08-1.17,1-.38-.3-.6-.38-.33-.53-.56-.6-.27-.8-.5-.86-.74.84-1,.78-.5.06-.73,0-.32-.75-.55-.8-.46-.22-.69-.26-.56.41-.8.37S96.23,2.64,96,2.61s-.57.58-.81.56-.5.3-.74.29-.46-.36-.71-.37S93.26,3,93,3s-.49-.12-.73-.12-.49-.09-.74-.08-.46.43-.7.45-.46.22-.7.25-.54-.41-.78-.37-.35.84-.59.88-.45.1-.69.15-.58-.46-.82-.4-.53-.13-.77-.07-.39.38-.62.45-.5,0-.73.1-.5.07-.72.15-.64-.26-.86-.17-.29.59-.51.69-.61-.12-.82,0-.06,1-.27,1.08-.73-.31-.94-.19-.14.7-.35.83-.72-.22-.92-.08-.26.49-.45.63-.73-.14-.92,0,.44,1.31.25,1.46-.46.18-.64.34-1-.42-1.22-.25-.39.33-.56.5.53,1.15.37,1.33-.75.23-.9.42c-.18-.17.07-1.09-.11-1.25s-1.08.48-1.26.32l-.57-.44c-.19-.15-.13-.61-.33-.76s-.52-.11-.72-.25,0-1-.15-1.08S72.19,7.1,72,7s-.65.09-.86,0-.31-.46-.53-.57-.59,0-.8-.07-.64.18-.86.08-.38-.32-.61-.42-.46-.14-.69-.23-.57.14-.79,0-.3-.59-.53-.67-.61.31-.84.23-.39-.36-.62-.43-.5,0-.74-.06-.26-1-.5-1-.54.14-.78.1-.54.27-.78.23-.44-.38-.68-.41-.54.35-.78.33-.44-.46-.69-.48-.52.48-.76.46-.45-1-.7-1-.5.53-.75.53-.47.55-.71.55-.49-.38-.73-.36-.5-.24-.73-.22-.52-.2-.75-.17-.37,1-.6,1-.46.11-.7.15-.53-.34-.77-.29-.46.14-.69.19-.42.29-.65.34-.75-.92-1-.86-.24.92-.47,1-.71-.62-.94-.54-.24.78-.47.87-.38.33-.6.42-.42.24-.64.33-.28.52-.5.63-.49,0-.7.16-.76-.42-1-.31-.24.57-.45.69-.23.54-.43.66-.42.21-.62.34-.91-.48-1.11-.35-.42.26-.62.4-.42.27-.61.42.11.91-.07,1.07-.84-.24-1-.08-.38.31-.56.48.34,1,.17,1.21-.18.47-.35.65-.36.29-.52.47-.43.24-.58.43-.28.37-.43.56-.63.11-.78.3.2.73.06.92-1.2-.23-1.33,0,.06.61-.07.82-.31.37-.43.58.31.72.2.93-.07.49-.17.7-.47.29-.57.51-.26.41-.35.63,0,.51-.07.73-.44.35-.52.57-.52.34-.59.57.68.69.62.92-.5.36-.55.59-.49.39-.54.63.19.52.15.76.39.53.36.77,0,.46,0,.7-.71.41-.72.65,0,.49,0,.73-.67.48-.67.72,1.07.5,1.08.75-.44.43-.42.68c-.26,0-.47.32-.73.28s-.47-.41-.73-.44-.57.59-.83.57-.5-.05-.76-.05-.5-.62-.77-.62-.49-.52-.73-.51-.42,1.15-.66,1.17-.52-.67-.76-.65-.42.49-.66.52-.44.21-.67.24-.54-.34-.77-.29-.42.3-.65.35-.46.09-.69.15-.38.4-.6.47-.43.18-.65.26-.53-.1-.75,0-.38.3-.6.39-.47.09-.68.19-.83-.66-1-.55-.28.54-.49.65-.12.78-.33.89-.88-.58-1.09-.46.09,1.05-.12,1.18-.59-.06-.79.07-.13.64-.32.78-.78-.27-1-.12-.22.5-.4.65-.89-.32-1.07-.17.07.82-.11,1-.71-.06-.88.1.38,1.09.21,1.26-1.06-.38-1.23-.21-.41.28-.57.46.15.78,0,1-.53.18-.69.36.23.78.08,1-.08.52-.22.71-.59.15-.73.35,0,.56-.12.76l-.38.59c-.12.2-1.23-.2-1.36,0s.76,1,.64,1.2-1.19-.12-1.31.09.5.8.39,1,0,.51-.13.72-.16.44-.26.66-.59.25-.68.47-1,.12-1,.35.12.56,0,.79.83.8.75,1-.75.24-.82.46.06.52,0,.75-.61.31-.68.54.1.52,0,.75.5.61.45.84-.85.3-.9.53.19.52.15.76-.7.36-.74.6-.31.44-.34.68.39.54.37.78.6.54.57.78-.35.44-.37.68.46.5.45.74-.1.46-.11.7-.43.45-.43.69.39.48.39.72-.78.48-.77.72,0,.48,0,.72.42.45.43.69-.11.49-.09.72-.19.5-.16.74.37.44.4.67-.19.51-.16.75,0,.49,0,.72.12.47.17.7.48.39.53.63.5.36.55.6-.1.5-.05.73-.41.6-.34.83.68.3.75.52-.2.56-.13.79.11.46.19.69.1.47.18.69.75.21.84.43-.24.61-.15.83-.42.71-.32.93,0,.52.15.73.34.38.45.59,1.19-.09,1.3.12-.42.78-.3,1,.46.28.59.48-.36.79-.24,1,.57.21.71.41.64.14.77.33.27.39.42.58-.12.69,0,.88.24.43.39.62,1.07-.29,1.23-.11,0,.59.19.77.36.31.52.49.27.39.44.56-.15.84,0,1,.93-.31,1.11-.16.21.48.39.63.27.42.46.57.68-.12.87,0,0,.74.23.88.32.39.52.52.67-.17.87,0,.36.31.57.43,0,1,.21,1.08.59-.06.8,0,.8-.56,1-.46.4.24.62.33.46.08.68.17.44.14.66.22.13,1.06.36,1.13.72-.73.95-.66.13,1.29.36,1.35.72-1,1-.91.28,1,.51,1,.51-.08.74,0,.46.22.69.25.48.13.72.15.52-.57.76-.55.45.68.69.69.48-.61.72-.61.5-.23.75-.24.56,1,.81.94.51-.19.77-.21.43-.63.68-.67.54.14.79.1.2.38.44.33c.09.23.82-.22.9,0s.16.45.25.67-.61.79-.51,1,.72.21.82.43.13.47.24.69-.17.64-.06.85.18.46.3.68,1,0,1.15.18-.33.76-.2,1,.32.38.46.58.42.3.56.5.51.23.65.43.32.35.47.54.1.53.25.72-.1.72.06.9,1.06-.28,1.22-.1,0,.6.21.78.13.54.3.71.85-.18,1,0,0,.67.21.83.61,0,.79.18.3.38.49.53.12.62.31.77l.58.42c.2.14,0,.87.2,1s1.08-.76,1.29-.63-.17,1.18,0,1.3,1-.72,1.18-.6.19.64.41.76.15.79.36.89.82-.6,1-.5.49,0,.72.12.26.63.48.72.32.57.55.64.57-.18.8-.11.37.49.61.55.59-.36.82-.3.34.77.57.82.69-1.11.93-1.07.43.3.67.33.41.58.65.61.48.15.72.16.5-.31.74-.3.48-.31.72-.31.49.89.73.88.45-.65.69-.66.48.14.72.12.41-.59.64-.62.51.26.74.22.51.16.74.11.43-.27.66-.32.56.28.79.22.24-.91.47-1,.57.29.8.21.64.38.86.3.3-.57.52-.66.32-.45.54-.55.5,0,.72-.12.18-.68.39-.79.5,0,.71-.16.76.38,1,.26,0-.94.18-1.07.79.36,1,.23.65.09.84,0,.19-.57.38-.71.49-.16.68-.31-.32-1.13-.14-1.28.7.09.88-.07.18-.48.36-.65.71.06.88-.11.42-.26.58-.43.38-.31.54-.49.1-.5.25-.68c.18.17.08.59.26.75s.89-.31,1.08-.16.18.54.37.68.35.35.54.49.11.7.31.84.62,0,.82.08.58,0,.79.09.17.67.38.79.78-.43,1-.32,0,1,.25,1.12.43.25.65.35.74-.49,1-.4.38.33.61.41.6-.28.82-.2.09,1.33.32,1.4.68-.6.91-.53.56-.28.79-.22.49-.06.72,0,.29,1.08.53,1.12.59-.72.83-.69.38.88.62.9.52-.36.76-.34.48.19.72.2.48-.49.73-.49.45-.06.68-.07.44-.17.67-.18.55,1.06.78,1,.33-1.21.56-1.24.46,0,.69,0,.63,1,.86.9.33-.69.56-.74l.68-.15c.22-.05.6.44.82.37s.44-.19.66-.26.3-.59.52-.67.56.18.78.1.23-.67.44-.76.3-.44.52-.53.6.4.81.3c.32.13.38,0,.66.22s0,.62.26.82.13.41.41.62.49-.08.77.13.7-.36,1-.16,0,.59.29.8.71-.37,1-.17-.13.78.15,1,.49-.08.77.12-.16.83.12,1,.89-.63,1.18-.42-.39,1.13-.11,1.33.92-.66,1.21-.45-.38,1.12-.1,1.32,1-.79,1.3-.59,0,.58.29.79,0,.57.32.77.35.12.63.33.54-.13.83.08a5.79,5.79,0,0,0,.55.43c-.17-.16-.25-.33-.42-.52s-.06-.51-.21-.71-.15-.43-.29-.63-.36-.28-.49-.49-1.12.13-1.24-.08-.2-.44-.32-.66.55-.8.44-1-1.12,0-1.22-.2.41-.71.32-.93-.32-.38-.41-.6-.07-.48-.15-.7,0-.5-.12-.72-.09-.47-.17-.69-.4-.36-.48-.59-.13-.46-.2-.68.19-.57.11-.79-1.15-.14-1.22-.36.51-.67.45-.89.38-.26.32-.49c.18-.16.24,0,.42-.2s-.55-1.27-.38-1.45.32-.35.49-.53.88.15,1,0,.19-.48.35-.67.55-.19.7-.39-.28-.84-.13-1,.31-.36.46-.56,1,.11,1.14-.1.5-.27.64-.47,0-.61.11-.82-.08-.63,0-.84.45-.31.57-.53.37-.36.49-.58.42-.35.53-.58-.5-1.17-.4-1.4c.26,0,.71,1.24,1,1.27s.62-1.3.88-1.28.47.4.72.41.5-.33.75-.33.49,1.11.73,1.1.5.09.74.07.41-.83.65-.85.55.63.79.6.41-.56.64-.6.6.57.83.53.29-1,.52-1,.38-.39.61-.45.44-.14.67-.2.69.61.91.53.32-.52.55-.61.46-.1.68-.19.23-.66.45-.75,1,1,1.17.86.43-.26.64-.37.2-.65.41-.76.41-.26.61-.38.24-.52.44-.65.85.42,1.05.29.33-.38.52-.52-.19-1.06,0-1.21,1.07.6,1.25.45.22-.51.4-.66.52-.14.7-.3l.53-.5c.17-.16-.16-.86,0-1s.16-.49.33-.67.68,0,.84-.18.33-.34.48-.52.17-.48.32-.66.18-.46.33-.65.12-.5.26-.69,1,.16,1.17,0-.33-.8-.2-1,.33-.34.46-.55.24-.4.36-.6-.14-.63,0-.84,1.09.07,1.2-.14.47-.31.58-.52-.72-.89-.62-1.11.2-.42.3-.63.79-.17.89-.39-.14-.57,0-.8.47-.32.56-.55.2-.43.28-.66.06-.48.13-.71.25-.42.32-.65-.33-.59-.27-.82-.07-.51,0-.74.68-.32.73-.55-.11-.51-.06-.75.52-.38.56-.62.45-.41.49-.65-.16-.52-.13-.75.21-.46.24-.7-.82-.58-.8-.81-.14-.49-.12-.73.67-.42.68-.66-.23-.49-.22-.73-.23-.48-.22-.72.42-.47.42-.71-.71-.47-.71-.71.41-.48.4-.72.71-.53.69-.77-.19-.47-.21-.71-1-.39-1.05-.63.31-.51.28-.75-.44-.41-.47-.65.55-.57.51-.8.55-.6.5-.83-1.33-.22-1.38-.46.31-.55.26-.78-.14-.46-.2-.69,0-.49-.09-.72-.16-.45-.23-.68-.34-.39-.42-.62.68-.74.6-1-.34-.39-.43-.61-.76-.22-.85-.44.69-.82.6-1-.4-.36-.5-.58-.44-.33-.55-.54-.8-.13-.91-.34-.31-.37-.42-.58-.15-.45-.27-.66-.19-.43-.32-.64,0-.56-.12-.76-.52-.23-.65-.42.62-1,.48-1.22-1.14.24-1.29.05,0-.63-.11-.82-.19-.46-.34-.64-.86.1-1-.08.42-1,.26-1.19-.81.11-1-.06.16-.85,0-1-.23-.47-.41-.64-1.09.5-1.27.34-.22-.46-.41-.61-.42-.23-.61-.38-.51-.09-.7-.23.11-1-.09-1.1-.79.31-1,.18-.42-.2-.62-.32-.23-.53-.44-.65,0-1-.22-1.09-.81.5-1,.39-.46-.12-.68-.22-.18-.79-.4-.88-.65.33-.88.24-.36-.4-.58-.48-.42-.25-.65-.32-.5,0-.73-.09-.55.25-.79.19-.3-.83-.53-.88S120.54,28.77,120.3,28.73Z"/><path class="cls-2" d="M112.21,111.8a2.7,2.7,0,0,1-.77-.22,2.62,2.62,0,0,1-.62-.46c-.29-.21-.39-.09-.68-.3s0-.7-.24-.92-.36-.14-.66-.35-.35-.15-.65-.37-.14-.43-.44-.64-.78.44-1.08.23-.57.15-.87-.07,0-.67-.27-.88-.6.2-.9,0,.33-1.08,0-1.3-.5,0-.79-.17-.61.21-.91,0-.21-.34-.51-.55-.41-.07-.71-.29-.25-.29-.55-.51,0-.63-.31-.85-.49.16-.84,0c-.22.09-.09.44-.31.52s-.58-.13-.8,0-.38.41-.61.48-.81-1-1-.9-.1,1.42-.33,1.48-.56-.2-.8-.14-.5,0-.73,0-.5,0-.74,0-.54-.35-.77-.32-.41.55-.65.58-.47.13-.71.16-.51-.33-.75-.31-.46.24-.7.25-.48-.67-.72-.67-.51,1.11-.75,1.11-.49-.13-.74-.14-.47-.25-.72-.27-.53.34-.77.31-.45-.39-.69-.43-.41-.52-.65-.56-.38-.54-.62-.59-.76,1.2-1,1.14-.27-.93-.5-1-.34-.55-.57-.62-.53.12-.76,0-.75.65-1,.57-.16-1-.38-1.06-.48-.09-.7-.19-.76.49-1,.39-.1-.91-.32-1-.25-.54-.47-.65-.71.31-.92.19-.39-.3-.59-.43-.12-.71-.33-.84l-.59-.39c-.2-.13-.68.13-.87,0s-.49-.55-.68-.7c-.18.17-.81.19-1,.35s.32,1.07.14,1.23-.8-.18-1,0-.51.11-.7.27-.39.27-.58.41.16,1,0,1.17-.18.61-.38.75-.9-.46-1.1-.33-.17.65-.37.77-.33.43-.54.55-1-.72-1.16-.6-.3.45-.51.56-.35.37-.57.47-.42.25-.64.35-.26.64-.49.73-.67-.4-.9-.32-.52-.06-.75,0-.37.43-.6.5-.54-.19-.78-.12-.19,1.21-.43,1.26-.65-.68-.89-.63-.54-.32-.78-.28-.32,1.07-.56,1.1-.51-.16-.76-.13l-.72.09c-.24,0-.48.28-.72.29s-.49.06-.74.07-.49,0-.74,0-.48-.37-.71-.37-.44-.72-.68-.73-.53.73-.76.71-.44-.4-.68-.43-.43-.33-.66-.37-.65,1-.89,1-.41-.44-.65-.49-.38-.48-.61-.53-.6.4-.83.34-.4-.36-.63-.43-.49-.06-.71-.14-.17-1-.4-1-.58.23-.8.14-.51,0-.73-.09-.57.09-.78,0-.62.17-.84.07-.23-.63-.44-.74-.49-.12-.7-.23-.34-.38-.54-.5,0-1-.17-1.09-1.11.83-1.3.7.36-1.37.16-1.51-.68.15-.87,0-.78.22-1,.08-.51-.15-.69-.3-.34-.37-.52-.53-.34-.35-.52-.51.15-.86,0-1-.58-.08-.75-.25-.31-.37-.48-.54.2-.82,0-1-.91.17-1.07,0-.13-.51-.29-.69-.16-.48-.31-.67-.33-.34-.47-.53-.64-.13-.78-.32.41-.87.27-1.06-.45-.26-.58-.46-.87,0-1-.22.67-1,.55-1.17-.95,0-1.06-.21-.58-.24-.69-.46.46-.77.35-1-.24-.41-.34-.63.06-.54,0-.76-.89.29-1,.07c-.24,0-.2-.74-.44-.72s-.51-.34-.75-.32-.46.52-.7.52-.49.05-.74.05-.46-.33-.7-.34-.5.41-.74.4-.51.4-.75.38-.49-.11-.72-.13-.41-.63-.64-.67-.6.63-.83.59-.33-.86-.57-.91-.36-.5-.6-.55-.61.52-.85.46S22,89,21.73,89s-.55.16-.78.09-.5,0-.72-.11-.25-.7-.47-.78-.74.54-1,.44-.46-.17-.67-.27-.53,0-.75-.14-.11-.85-.32-1l-.62-.35c-.21-.12-.79.39-1,.27s-.23-.55-.44-.68-.49-.13-.69-.27-.5-.13-.7-.27-.42-.26-.61-.4.09-.91-.1-1.06-.61,0-.79-.16-.35-.34-.53-.5,0-.75-.14-.92-1.17.54-1.34.37,0-.66-.2-.84-.32-.36-.48-.54-.22-.45-.38-.63-.13-.52-.29-.71-.12-.51-.27-.7-.46-.23-.6-.42-1,.16-1.16,0,0-.63-.11-.83l-.4-.6c-.14-.2-.39-.33-.52-.53s.35-.79.23-1-.79-.08-.91-.29-.34-.37-.46-.58,0-.55-.11-.77-.68-.2-.78-.41.65-.86.55-1.07-.76-.19-.86-.4,0-.52-.13-.74.17-.59.08-.81-.44-.34-.52-.57-.13-.46-.21-.69-.42-.37-.49-.6.77-.74.7-1-.62-.31-.68-.54-.5-.36-.56-.59-.05-.49-.11-.72.52-.61.47-.85S.68,65.61.64,65.37s.55-.6.51-.84.12-.5.08-.74.25-.51.22-.75-.26-.44-.28-.68-.62-.42-.64-.66.88-.55.86-.79-.75-.42-.76-.66-.51-.46-.52-.71,1-.5,1-.75S0,58.32,0,58.08s.22-.49.22-.73-.06-.49,0-.73.84-.44.85-.68-.38-.5-.36-.74.33-.45.36-.69S.44,54,.47,53.73.31,53.21.35,53s.55-.42.59-.65.85-.34.89-.58-.43-.56-.38-.79-.52-.61-.47-.84,1-.26,1.09-.49.32-.4.38-.64-1-.78-1-1,.37-.4.44-.63-.06-.53,0-.76.8-.23.88-.46-.62-.74-.53-1,.11-.49.2-.71,1.2,0,1.3-.25-.25-.63-.16-.85.83-.14.93-.36-.84-.94-.73-1.15,1.31.13,1.42-.08-.83-1-.72-1.2,1.14.09,1.26-.12,0-.53.15-.74.18-.44.31-.64.63-.15.77-.35-.07-.62.06-.81.58-.17.72-.36-.67-1.12-.53-1.3,1.11.26,1.26.07-.29-.87-.14-1,.13-.54.29-.72S9,34.2,9.18,34s1.15.45,1.32.27.42-.24.59-.4,0-.69.17-.85.16-.55.34-.71.64,0,.83-.13.59,0,.78-.16-.07-.87.12-1,.76.24.95.1-.09-1,.11-1.1.61,0,.81-.08.51-.07.71-.2.42-.22.62-.34.33-.39.54-.5.46-.15.67-.26.48-.08.7-.18.25-.61.47-.7.48-.11.7-.19.56.14.79.06.46-.08.69-.16.37-.37.6-.44.22-1,.45-1.08.57.21.8.16.45-.23.69-.27.44-.33.68-.37.62.82.86.79.42-.45.66-.48.47-.25.7-.27.5,0,.74,0,.5.49.74.49.47.48.71.48.48-1.23.71-1.22.08.15.31.16c0-.24-.12-.14-.11-.38s.14-.48.16-.71.45-.44.48-.67-.28-.54-.24-.77.62-.38.67-.62.22-.43.27-.66.32-.41.38-.64.07-.46.14-.69-.59-.68-.52-.91.92-.19,1-.41-.11-.55,0-.77.56-.28.65-.5-.48-.72-.38-.94.35-.36.46-.58.64-.2.75-.41-.32-.71-.2-.92-.14-.65,0-.85.81-.07.94-.27,0-.55.17-.74.11-.52.25-.71.95.11,1.09-.08.37-.3.52-.49-.28-.84-.12-1,.72,0,.88-.17.5-.17.66-.34-.46-1.12-.29-1.29.52-.16.7-.32.83.2,1,0,.35-.3.53-.46-.3-1.11-.11-1.26.83.28,1,.14.37-.29.57-.43.56,0,.76-.15,0-.8.23-.93.61.08.82,0,.09-.78.3-.9.31-.45.52-.56,1,.86,1.2.75.36-.33.58-.43.31-.43.53-.53.06-1.07.28-1.17.81.71,1,.63.24-.72.46-.8.38-.42.6-.49.7.59.93.53.59.36.82.3.27-.84.5-.9.56.31.79.26S51.63,1,51.86,1s.55.28.79.24.45-.3.68-.33S54,2,54.2,2s.35-1.2.59-1.22.48-.1.72-.11.54,1,.78,1,.46-.4.7-.41.47.41.71.41.47-.2.71-.2.5-.71.73-.7.47.26.71.28.45.3.69.32.46.11.69.14.56-.59.8-.56.37.75.6.78.62-.72.85-.67.25,1.13.48,1.18.51-.11.74-.06.56-.28.79-.22.3.66.53.72.74-.75,1-.68.08,1.26.3,1.34.56-.19.78-.1.62-.26.84-.17.28.55.49.65.65-.27.86-.16.55,0,.76.09-.17,1.36,0,1.47.67-.24.87-.12.44.19.64.31.47.14.67.27.38.28.58.41.48.15.67.29.24.46.43.61.4,0,.59.16c.17-.17.45,0,.62-.17s.18-.53.36-.68.76.17,1,0-.32-1.21-.13-1.35,1.16.8,1.36.66-.09-1,.11-1.11.2-.61.4-.74,1.06.85,1.27.73-.23-1.4,0-1.52.8.5,1,.39.12-.89.34-1l.67-.3c.23-.1.6.16.82.07s.42-.28.65-.36.38-.42.6-.49.79.93,1,.86S85.74,1,86,.9s.64.63.88.58.31-.83.55-.88.63.78.87.74.41-.42.65-.45.51.27.75.24.42-.51.66-.53.46-.44.7-.46.49,0,.73,0S92.26,0,92.5,0s.47,1.18.71,1.19.49-.66.73-.65.48,0,.72,0,.52-.34.76-.32.42.6.66.63.49-.07.73,0,.39.58.63.62S98,.92,98.25,1s.43.27.66.33.4.39.63.45.58-.33.81-.26.57-.2.8-.13.29.67.52.74.66-.43.89-.35.23.8.45.89.52,0,.74.09.35.42.57.52.27.56.49.66.45.14.67.24.73-.39,1-.28.7-.27.91-.15.09.85.3,1,.67-.18.88-.05,0,.83.26,1,.22.52.42.65.9-.45,1.09-.31,0,.86.18,1,.82-.29,1-.14.36.34.54.49.4.29.58.45.34.37.52.53.08.63.25.79.62.06.79.23-.1.79.07,1,.72,0,.89.15.05.61.21.79.56.15.72.33-.17.76,0,1,.55.18.7.37.88-.06,1,.14-.73,1.11-.59,1.31,1.11-.18,1.24,0,.55.24.68.45-.92,1.12-.79,1.33.66.16.78.37-.16.63,0,.84.49.28.6.49,0,.51.14.73,1.33-.07,1.43.15,0,.54.09.76-.33.66-.25.89,0,.51.08.74-.26.58-.18.81.57.32.64.55.25.42.31.66-.38.58-.33.82.26.42.31.66,1.22.25,1.26.49-.48.58-.45.82-.11.57-.08.81c.24.06.65-.29.88-.22s.37.47.6.54.62-.3.84-.22l.69.26c.23.09.46.2.68.3l.67.3c.22.1.33.46.54.57s.38.33.59.44.29.48.5.6.57,0,.78.08.1.76.3.89.62-.09.82,0,.11.68.31.82,1.11-.73,1.3-.58.36.35.55.49.28.44.47.6.06.67.24.83.1.61.27.77.28.39.45.56.7,0,.87.13.89-.18,1.06,0-.25.9-.09,1.08.26.41.41.59,1-.2,1.15,0-.36.91-.21,1.1-.1.66.05.86,1.08-.2,1.22,0-.35.83-.22,1,.23.42.36.62,1.13-.14,1.25.07-.55.89-.43,1.1,1,0,1.1.2,0,.58.07.8-.1.58,0,.8-.15.6-.05.82,1,.08,1.08.3-.58.77-.49,1,.49.31.58.53.86.19.95.42.19.45.27.68-.09.55,0,.77-.54.68-.47.91.44.36.51.6.57.34.63.58.22.44.28.68-.66.64-.61.88.16.45.21.69.73.35.77.59.36.44.4.68-1.06.64-1,.88.07.46.1.7.33.44.35.69.17.46.19.7.64.45.66.69-.09.49-.08.73-.15.5-.14.74.3.49.3.73-.78.48-.78.72.46.49.46.73-.63.45-.65.69.29.49.28.73l-.06.72c0,.24-.05.47-.08.71s.51.56.47.79.1.52.07.75-1.33.27-1.38.5.15.51.11.75-.06.47-.11.7-.09.47-.15.7.79.7.73.93,0,.5-.11.74-1.22.14-1.29.37.08.52,0,.75-.48.33-.56.56l-.23.67c-.09.22,0,.5-.11.72s.43.69.33.91-.74.2-.84.42.32.68.22.89-1,0-1.14.24.92,1,.81,1.23-.61.22-.73.43,0,.54-.16.75-.46.29-.59.49,0,.55-.17.75-.77.07-.9.27-.52.22-.65.41.59,1,.45,1.22-1.26-.36-1.41-.17.26.82.11,1-.79,0-.94.15.12.73,0,.91-.23.44-.4.62-.13.54-.3.71-.22.48-.39.65-.56.12-.74.28-.84-.22-1-.07-.49.15-.67.31-.32.34-.51.49.23,1.08,0,1.22-.74-.18-.93,0,0,.82-.22,1-.86-.44-1.07-.32,0,.86-.24,1-.37.32-.58.44-1-.76-1.17-.65-.3.42-.52.53-.4.25-.62.35-.3.47-.52.56-.35.41-.58.5-.3.58-.52.66-.43.3-.65.38-.86-1.13-1.09-1.06-.2,1-.43,1.1-.65-.63-.89-.58-.28.94-.51,1-.53-.2-.77-.16-.56-.51-.8-.48-.43.33-.67.36-.44.29-.68.31-.51-.43-.75-.42-.44.61-.69.62-.48.44-.72.44-.5-1.12-.76-1.12-.69.27-1,.25c-.11.21.46,1,.34,1.22s-.59.24-.71.44,0,.57-.14.78-1,0-1.1.17-.44.27-.58.47-.11.51-.25.7-.44.27-.59.46.12.69,0,.88-.54.18-.7.37-.46.23-.61.41.47,1.07.31,1.25-.17.52-.34.7-.2,0-.37.18c.07.23-.82.4-.75.62s.59.31.66.53.34.4.41.61.25.42.33.64-.62.75-.53,1,.17.46.26.67.81.19.9.4-.64.82-.54,1,.69.22.79.42-.16.64,0,.84.66.2.77.39.23.45.34.64.41.32.53.49.23.46.36.62-.06.82.08,1,1.14-.29,1.26-.08.06.63.11.87.43.6.4.85-.82.37-.92.6-.58.08-.74.28-.1.36-.3.5-.34,0-.57.1S112.45,111.8,112.21,111.8Zm-79-27A2.47,2.47,0,0,1,34,85a2.37,2.37,0,0,1,.61.44c.21.14.49.2.64.4s-.29.63-.2.88.27.43.35.65.27.43.36.65,0,.56.05.78.94.1,1,.32.61.22.72.44-.28.68-.16.89.68.17.79.37-.68,1-.55,1.17.54.24.66.44.7.12.83.31.15.48.29.67.44.27.58.46.22.44.37.62-.09.7.07.88.7,0,.86.2.52.17.68.34.09.57.26.74.52.14.69.31-.42,1.19-.24,1.35,1.22-.71,1.41-.55.15.55.34.7.31.38.5.52.31.39.51.52.16.64.37.77.66-.16.87,0,.45.16.66.28.26.54.47.65.53,0,.75.11.17.82.4.91.85-.85,1.08-.77.4.26.63.34.38.35.61.42.55-.24.78-.18.37.43.61.48.38.55.61.59.42.54.66.58.64-1.26.88-1.23.39.88.63.9.47.47.71.48.5-.26.74-.26.46-.86.7-.86.52.83.76.81.47-.13.71-.16.37-.8.61-.83.59.69.82.65.56.27.79.22.33-.71.56-.77.48-.06.71-.13.63.37.86.3l.69-.25c.22-.09.27-.63.49-.72s.55,0,.76-.07.6.1.81,0,0-1.11.18-1.23.75.36,1,.24.55,0,.75-.17.43-.24.63-.38-.12-1,.07-1.16.14-.58.33-.73.92.4,1.1.25.07-.65.25-.81.21-.46.39-.62,1.1.47,1.27.3.16-.53.33-.7.2-.47.36-.65.29-.39.44-.57,0-.71.19-.83.67.33.88.26.36.13.59.12.37-.3.59-.26.22.4.42.5,1-.69,1.18-.54-.19.92,0,1.07.1.64.28.79,1-.49,1.18-.35.24.46.43.6l.58.38c.2.13.52,0,.72.18s.41.21.61.32.42.19.63.3.24.54.45.64.14.84.35.94.74-.51,1-.43.31.51.53.6.36.42.58.5.78-.92,1-.86.35.47.58.53.36.49.59.54.56-.43.79-.39.41.32.65.35.47,0,.7,0,.4.91.63.93.51-.38.74-.37.48-.18.72-.18.46-.32.7-.32.44-.44.67-.45.5.42.74.39.45-.18.68-.21.49.09.73,0,.64.72.87.67.16-1.36.39-1.42.82,1.17,1.05,1.1.31-.64.54-.71.23-.77.45-.85.35-.35.57-.44.45-.12.67-.21.43-.16.64-.27.71.49.93.45.44-.4.67-.39a2.93,2.93,0,0,1,.7.2c.21.08,0,.78.22.92s.74-.46,1-.26.13.38.4.57.17.33.43.53.3.15.57.34.38-.11.69,0c-.08-.25.19-.32.11-.57s-.38-.43-.46-.68-.85-.29-.93-.55.89-.82.81-1.07-.9-.29-.9-.53-.33-.63-.26-.85.87-.19,1-.39a2,2,0,0,1,.4-.52c.18-.16.56-.12.73-.28s-.4-1.09-.23-1.26,1,.26,1.13.09.62-.11.77-.29,0-.69.11-.88.28-.39.42-.58.57-.19.71-.38-.06-.64.08-.84-.08-.63,0-.83.31-.37.43-.57.75-.11.87-.32-.38-.77-.26-1,.93,0,1-.25.59-.25.7-.47-.38-.73-.28-.94.51-.24.69-.43.15-.56.39-.69a2.84,2.84,0,0,1,.7-.39c.26,0,.48.51.75.54s.55-.71.77-.69.45,0,.67,0,.45-.16.67-.16.43.73.65.73h.73c.24,0,.44-.75.68-.77s.49.3.73.28.45-.21.69-.24.43-.25.67-.29.44-.12.68-.18.64.65.87.59.37-.48.6-.55.46-.11.69-.19.66.4.88.31,0-1.27.23-1.37.61.24.83.14.44-.18.65-.29.49-.08.7-.2.55,0,.76-.14.54,0,.75-.17.29-.44.49-.58-.13-1,.06-1.15.62.05.81-.1.38-.28.56-.44.27-.4.45-.56.84.21,1,0-.09-.78.08-1,.25-.42.42-.59.52-.16.68-.34-.07-.68.08-.86,1.05.25,1.2.06-.18-.75,0-.94.43-.28.57-.47.59-.18.72-.37,0-.56.17-.76.29-.38.41-.59,0-.55.13-.76,1.08,0,1.19-.16-.21-.67-.11-.88-.12-.6,0-.82.26-.4.36-.62.79-.19.88-.41-.88-.87-.79-1.09.79-.21.87-.44.35-.39.42-.62.47-.36.54-.59-.05-.53,0-.76-.42-.61-.36-.84,1-.26,1.08-.49-.6-.63-.55-.87-.38-.55-.34-.79,1.09-.31,1.12-.54-1-.64-1-.88.27-.43.3-.67,0-.48,0-.72.85-.42.87-.66-.38-.5-.37-.74.31-.48.32-.72-.63-.49-.63-.73-.21-.47-.22-.71.48-.49.47-.73.76-.54.74-.78-.56-.45-.58-.69-.67-.41-.7-.65.89-.6.86-.83.14-.53.1-.76-1.27-.28-1.32-.51.15-.51.1-.75-.31-.42-.36-.65.55-.63.49-.86-.92-.25-1-.48-.19-.43-.27-.66.91-.79.84-1-.61-.3-.7-.53.49-.7.4-.93-1.27,0-1.36-.23.94-.93.84-1.15-1.29.06-1.39-.16.72-.89.61-1.1-.46-.32-.57-.53-.3-.39-.42-.6.14-.66,0-.87-.6-.2-.74-.4,0-.62-.09-.82-1.27.3-1.41.1.55-1,.4-1.19-.91.1-1.06-.09-.49-.2-.65-.38-.29-.36-.45-.54.51-1.13.34-1.31-.26-.44-.43-.61-.7,0-.87-.15-.56-.1-.74-.26-.08-.65-.27-.81-.16-.59-.35-.74-.82.28-1,.14,0-.82-.22-1-.87.43-1.07.31-.22-.58-.42-.7-.33-.42-.54-.54l-.64-.35c-.22-.11-.52,0-.74-.15s-.42-.27-.64-.36-.4-.31-.63-.39-.61.25-.84.18-.43-.24-.66-.31-.38-.46-.61-.51-.46-.2-.7-.25-.53.13-.76.09-.78.74-1,.65-.32-.59-.49-.74a3.25,3.25,0,0,1-.6-.5c-.12-.19-.5-.43-.57-.64s.77-.66.75-.89-.42-.45-.44-.69-.25-.44-.28-.68,0-.47,0-.71.43-.56.38-.79.39-.59.34-.82-1.31-.17-1.37-.41-.13-.44-.2-.67-.12-.44-.2-.67-.06-.47-.14-.69.2-.58.11-.8-.51-.3-.6-.52.3-.66.2-.87-.09-.5-.2-.71,0-.53-.15-.74-.28-.41-.4-.62-.9,0-1-.22.43-.84.3-1-.52-.24-.65-.44,0-.64-.09-.83-.87.06-1-.13-.16-.48-.32-.67.06-.68-.09-.86-.79,0-.95-.13-.64,0-.81-.21.14-.79,0-1-.53-.14-.71-.3-.48-.17-.66-.33.18-.94,0-1.1-.32-.39-.5-.54-.85.31-1,.16-.06-.72-.26-.86-.26-.5-.46-.63-1,.67-1.2.55-.27-.47-.47-.59-.06-.87-.27-1l-.64-.35c-.22-.11-.9.72-1.11.61s-.12-.87-.33-1l-.67-.28c-.22-.09-.33-.48-.55-.57s-.68.44-.9.36-.34-.53-.57-.61-.64.45-.87.39-.51.1-.74,0-.18-1.31-.41-1.36-.52,0-.75,0-.53.17-.77.13-.61.87-.85.83-.35-1-.59-1-.53.53-.77.51-.49.24-.73.23-.45-.8-.69-.8-.5-.52-.74-.52-.46.76-.7.77-.52-.41-.76-.39-.36,1.14-.6,1.17-.52-.32-.75-.28-.43.29-.66.33-.72-1.09-1-1-.2,1.23-.43,1.29-.43.17-.66.24-.77-.82-1-.74-.33.52-.55.61-.62-.2-.84-.11-.37.38-.59.48-.11.87-.32,1-.53,0-.74.13-.55,0-.75.14-.44.21-.64.34,0,.81-.21,1-.79-.25-1-.1.16.92,0,1.08-1.07-.47-1.24-.3-.2.5-.37.67,0,.63-.19.81-.74,0-.89.18.28,1,.09,1.18-.92-.8-1.13-.73S76,13,75.8,13s-.51.46-.73.41-.32-.51-.52-.62-.7.14-.87,0-.5-.14-.68-.3.49-1.29.31-1.44-.72.1-.9,0-.42-.25-.61-.39-.46-.18-.65-.32-.38-.29-.58-.42-.48-.13-.69-.25-.29-.44-.49-.56-.56,0-.77-.09-.26-.53-.48-.64-.55.06-.76,0-.2-.77-.42-.86-.86.9-1.08.82,0-1.42-.23-1.49-.72.66-1,.59-.56.26-.79.2-.15-1.35-.38-1.4-.76,1.19-1,1.14-.31-.89-.54-.93-.58.67-.82.63l-.69-.09c-.24,0-.43-.42-.66-.44s-.48.08-.72.07-.47.25-.71.24-.46-1.13-.7-1.13-.46,1-.7,1-.51-.74-.75-.73-.42.77-.65.79-.57-.83-.8-.81-.44.41-.68.45-.53-.26-.76-.22-.39.54-.62.59-.37.5-.6.55-.46.08-.69.14-.41.25-.64.32-.82-1-1-.9-.24.79-.46.87-.42.23-.64.32-.28.53-.5.63-.66-.31-.87-.21-.37.34-.58.44-.67-.22-.88-.1-.13.74-.33.86-.5.09-.7.22-.57,0-.76.16-.13.65-.32.79-.17.55-.35.7-.72-.14-.9,0,0,.77-.13.93-.81-.18-1,0-.21.47-.38.64-.52.17-.68.34-.63.1-.79.28-.27.42-.42.6.24.8.1,1,.18.71,0,.9-.85,0-1,.19.17.66,0,.86-.83.07-.94.28-.51.28-.62.5.57.8.47,1-.84.15-.93.37.49.71.41.93-.21.42-.28.64-.12.45-.19.68-.18.43-.24.66-.52.36-.57.59.27.54.23.78-.7.36-.74.6.47.54.45.78-.42.44-.44.68.3.49.29.73-.63.47-.63.71.32.47.33.7.76.42.78.65-1.23.38-1.29.63.79.81.66,1-.14.73-.33.9-1.14-.83-1.37-.72-.21.6-.46.63-.36-.41-.61-.46-.52.23-.75.19-.45-.25-.69-.27-.56,1.19-.79,1.17-.43-.24-.67-.24-.44-.57-.68-.57-.49-.18-.73-.17-.52-.41-.76-.39-.45.49-.69.52-.47.17-.71.21-.57-.44-.81-.4-.46.25-.69.31-.2,1.21-.43,1.27-.61-.44-.84-.37-.52-.06-.75,0-.29.59-.52.68-.57-.15-.79-.06-.24.62-.46.72-.43.19-.64.3-.43.19-.64.31-.41.21-.62.34-.55,0-.75.12-.48.15-.68.29-.56,0-.76.17-.2.54-.39.68-.76-.16-.95,0-.11.63-.29.78-.71,0-.88.12.5,1.23.33,1.39-.37.29-.54.46-.45.22-.61.4-.67.05-.83.23-.62.12-.77.31-.39.32-.53.51.12.7,0,.9.35.82.21,1-.92,0-1,.16-.33.36-.46.57.53.86.41,1.07-1,0-1.1.21-.65.21-.76.43.67.87.57,1.08-.9.12-1,.34-.23.44-.33.66.77.82.69,1S7.1,47.1,7,47.33s.65.73.57,1-.45.35-.52.58-.48.36-.54.59-.52.37-.58.6.72.68.66.91-.92.3-1,.53.23.55.19.78.64.6.6.84,0,.47-.07.7S6,54.26,6,54.5s-.77.41-.79.65.28.51.26.75.43.51.42.75.09.47.08.72-.79.47-.79.71.07.49.07.73.66.46.67.7.31.46.33.7-1.11.57-1.09.8.06.5.09.73.33.46.36.7.2.46.24.7.68.37.72.6,0,.49,0,.72-.06.5,0,.74.39.39.45.62-.62.66-.56.9.59.32.66.55-.43.65-.35.88.46.35.54.58.17.45.26.67.17.46.27.68.7.21.8.43.35.35.45.57-.93,1-.82,1.21.44.33.55.54.26.41.38.62.26.41.39.62,1-.09,1.17.11.33.34.46.54-.65,1-.51,1.24.47.26.61.45,0,.61.18.79.32.38.48.57.44.26.6.44.81-.09,1,.09-.09.77.08.94.74-.08.91.09-.25,1-.07,1.16,1.19-.65,1.37-.5.1.63.29.77.52.11.71.25.24.48.44.61.53.06.73.18.09.78.3.9.28.5.49.62.92-.74,1.14-.63-.1,1.31.12,1.41.73-.45,1-.35.22.77.44.85.66-.37.89-.29.49,0,.72.1.52-.14.76-.08.49-.07.72,0,.4.39.63.43.36.81.6.85.47.27.71.29.5,0,.74,0,.54-1,.78-1,.46.6.7.6.43-.66.66-.67.49.83.72.81.38-.74.61-.77.42-.14.65-.17.62,1.05.84,1,.42-.31.64-.36S33.09,84.81,33.25,84.81Z"/></g></g></svg>