<svg xmlns="http://www.w3.org/2000/svg" viewBox="0 0 232.95 122.14"><defs><style>.cls-1{fill:#110c04;}.cls-2{fill:#d39c16;}.cls-3{fill:#fff;}.cls-4{fill:#141414;}</style></defs><g id="レイヤー_2" data-name="レイヤー 2"><g id="レイヤー_2-2" data-name="レイヤー 2"><path class="cls-1" d="M52.08,8.41a28.42,28.42,0,0,1,2.46,2.09c.76.73,1.14,1.21,1.14,1.46-.14.56-.6.85-1.37.85H43a58,58,0,0,1-3.45,5.77h6.36l1.28-1.69.55-.72a8.33,8.33,0,0,1,.66-.74.77.77,0,0,1,.48-.24,4.92,4.92,0,0,1,1.62.93,24.76,24.76,0,0,1,2.41,2q1.11,1,1.11,1.41a3.34,3.34,0,0,1-2,1.06V31.3q.11,6.58.42,12.46a4.27,4.27,0,0,1-1.85,1.16,9,9,0,0,1-3.39.59H46.09V43.18h-11v1.59c0,.14-.12.28-.37.42,4,2.3,6,3.69,6,4.19,0,.1-.16.19-.48.26l-.95.11a28.55,28.55,0,0,1-7.74,4.61,41.88,41.88,0,0,1-10,2.81l-.38-.64a36.75,36.75,0,0,0,7.61-5.06,30,30,0,0,0,5.59-6.07,9.15,9.15,0,0,1-3.92.8H29.45V21.34a2.34,2.34,0,0,1-.8-.11,76.51,76.51,0,0,1-7.94,6.1,85.43,85.43,0,0,1-1,10.18,15.54,15.54,0,0,1,6.76,3.92,7.18,7.18,0,0,1,2.14,4.77,3.79,3.79,0,0,1-.82,2.49,2.52,2.52,0,0,1-2,1,3.71,3.71,0,0,1-2.44-1,16.46,16.46,0,0,0-1.29-4.85,22.42,22.42,0,0,0-2.68-4.69,29.44,29.44,0,0,1-3.92,10,25.45,25.45,0,0,1-7.74,7.52l-.64-.85a26.66,26.66,0,0,0,5.3-8.71A43,43,0,0,0,14.77,36.5q.59-5.78.63-14.26L15.3,20Q15,9.46,14.66,7.56,22.3,8.25,22.29,9q0,.21-.42.48l-.95.58c0,2.37,0,4.1-.06,5.2q0,6.72-.1,9.75a42.63,42.63,0,0,0,3-9.17L29.45,20a33.46,33.46,0,0,0-.21-4.13l6.46,2.75h1q.16-1.32.42-5.77H33.37a41.39,41.39,0,0,0-7,.74l-1.33-2.7q2.91.32,7.05.42H47.31l1.38-1.91c.18-.24.37-.52.58-.82a7.82,7.82,0,0,1,.64-.79c.21-.23.39-.35.53-.35A5,5,0,0,1,52.08,8.41ZM7.75,33a2.24,2.24,0,0,1-.67-1.67,4.36,4.36,0,0,1,1.43-3,9.11,9.11,0,0,0,1.78-3.66,16.32,16.32,0,0,0,.61-5.56l.69-.06a23.4,23.4,0,0,1,1.8,8.27,7.19,7.19,0,0,1-1.85,5.36,3.16,3.16,0,0,1-2.18.95A2.2,2.2,0,0,1,7.75,33Zm38.34-6.92V20h-11v6.09Zm-11,7.74h11v-6.2h-11Zm0,7.84h11V35.33h-11ZM41.64,46Q48.79,47.26,52,49.43c2.15,1.45,3.23,2.91,3.23,4.4A2.89,2.89,0,0,1,54.31,56a3.15,3.15,0,0,1-2.23.9,3.21,3.21,0,0,1-2.6-1.37A19.64,19.64,0,0,0,46.36,51a24.85,24.85,0,0,0-5.09-4.3Z"/><path class="cls-1" d="M68.19,17.15a22.81,22.81,0,0,1,1.27,7.21,10.24,10.24,0,0,1-1.27,5.51A3.17,3.17,0,0,1,67,30.93a2.86,2.86,0,0,1-1.38.37,1.77,1.77,0,0,1-1.59-.79,2.3,2.3,0,0,1-.37-1.27,3.24,3.24,0,0,1,1.22-2.44,12.79,12.79,0,0,0,1.85-4.21,15.42,15.42,0,0,0,.58-5.49Zm8.32,25.6q.1,6.57.43,12.46a3.78,3.78,0,0,1-1.88,1.3,7.85,7.85,0,0,1-3,.66,2.25,2.25,0,0,1-1.3-.32.9.9,0,0,1-.45-.74q.21-3.13.37-6.07t.21-7.71V18.05a69.17,69.17,0,0,0-.69-10.86q4.41,1,6.07,1.56c1.11.37,1.67.7,1.67,1s-.14.3-.42.48l-1,.58v5.62l.53-.26a11.88,11.88,0,0,1,4.35,3.1,5.37,5.37,0,0,1,1.38,3.31,2.88,2.88,0,0,1-.64,1.93,2,2,0,0,1-1.59.77,2.69,2.69,0,0,1-1.85-.85,12.2,12.2,0,0,0-.59-3.89,21.51,21.51,0,0,0-1.59-3.9Zm9.7,5.78a46.91,46.91,0,0,0,7.05-11.4A51.79,51.79,0,0,0,86.9,30.4l.48-.47a43.6,43.6,0,0,1,7.52,3.44,74.53,74.53,0,0,0,2.39-7.79L97,25.32a50.46,50.46,0,0,0,4.14-7.48,40.15,40.15,0,0,0,1.93-5.19,26.32,26.32,0,0,0,1-4.93q4.29,1.8,6,2.7c1.11.6,1.67,1,1.67,1.27s-.14.22-.43.32l-1,.32a50.06,50.06,0,0,1-5.22,6.86,39.87,39.87,0,0,1-6.6,6Q104,27,104,27.59c0,.11-.16.23-.48.38l-.95.31a84.43,84.43,0,0,1-3.87,7.79,15.75,15.75,0,0,1,3.39,4.16A8.25,8.25,0,0,1,103.17,44a3.32,3.32,0,0,1-.66,2.15,2.1,2.1,0,0,1-1.72.82,3.34,3.34,0,0,1-2-.63,25.7,25.7,0,0,0-3.08-5.89,38.86,38.86,0,0,1-9.54,9.38v1.54h18.45V36.55A69.17,69.17,0,0,0,104,25.69c2.82.63,4.78,1.14,5.88,1.51s1.64.68,1.64.92-.12.25-.37.43l-.85.58V41.8q.11,6.57.43,12.45a3.62,3.62,0,0,1-1.91,1.28,8.44,8.44,0,0,1-3.13.63c-.81,0-1.22-.35-1.22-1.06l.22-1.06V52.93H86.21v2.12c0,.17-.24.4-.71.69a7.32,7.32,0,0,1-1.75.71,7.1,7.1,0,0,1-2,.29,1.82,1.82,0,0,1-1.14-.31,1,1,0,0,1-.4-.75c.14-1.83.26-3.65.35-5.45s.15-4.09.18-6.84V36.66a69.31,69.31,0,0,0-.69-10.87c5,1.1,7.42,1.89,7.42,2.39,0,.14-.12.3-.37.47l-.9.53ZM81.5,9.36A16.81,16.81,0,0,1,88,13.81,7.92,7.92,0,0,1,90,18.74a3.87,3.87,0,0,1-.74,2.44,2.3,2.3,0,0,1-1.91.95,3.54,3.54,0,0,1-2.28-1,22.64,22.64,0,0,0-1.43-5.73A42.45,42.45,0,0,0,81,9.63Zm8.85-1.59a17.24,17.24,0,0,1,6.07,4.75,8.56,8.56,0,0,1,1.93,5,4.32,4.32,0,0,1-.77,2.63,2.27,2.27,0,0,1-1.88,1A3.44,3.44,0,0,1,93.31,20Q93.1,15.3,89.82,8Z"/><path class="cls-1" d="M167.89,44.08H155.54a16,16,0,0,0,5.06,3.79,35.27,35.27,0,0,0,8.4,2.89v.68a6.19,6.19,0,0,0-3.45,1.86,6.34,6.34,0,0,0-1.16,4,17,17,0,0,1-6.52-5.67,27.41,27.41,0,0,1-3.66-7.58h-1.32a17.13,17.13,0,0,1-6.15,7.81q-4.4,3.21-12.88,5.38l-.48-.79a30.31,30.31,0,0,0,9.38-5.43,16.47,16.47,0,0,0,4.56-7h-3.65a37.19,37.19,0,0,0-6.68.74l-1.33-2.65c1.94.21,4.3.35,7.05.42h5.09a41.9,41.9,0,0,0,.74-5.46h-3.18a27.08,27.08,0,0,0-5.62.75l-1.32-2.71c1.91.21,4.2.36,6.89.43h3.28c.07-1.13.11-2.9.11-5.3h-3.55a34.43,34.43,0,0,0-6.47.74l-.85-1.7v.16c-.84.67-2.7,2-5.56,4V50.23a11.14,11.14,0,0,1-.48,3.63,4.09,4.09,0,0,1-2,2.19,11.44,11.44,0,0,1-4.34,1.17,8.86,8.86,0,0,0-1-4.13,4,4,0,0,0-1.35-1.2,7.85,7.85,0,0,0-2.25-.71v-.74c2.72.21,4.34.32,4.87.32a1.14,1.14,0,0,0,.77-.22.87.87,0,0,0,.24-.69V37.08l-2.65,1.64a2,2,0,0,1-1.32,1.49l-2.34-7,4.46-1c.38-.08,1-.22,1.85-.43V21.08H124.9a9.39,9.39,0,0,0-3.28.74l-1.38-2.65a35.53,35.53,0,0,0,4.45.42h2.12V18a69.4,69.4,0,0,0-.69-10.87q4.24,1,5.86,1.57c1.08.37,1.61.68,1.61.92s-.14.31-.42.48l-.9.58v9l2.44-4.4q2,2.34,3.39,4.08h7.47v-.95a69.4,69.4,0,0,0-.69-10.87q6.47,1.59,6.47,2.34c0,.14-.09.26-.27.37l-.63.42v8.69h2.6v-.9a69.17,69.17,0,0,0-.69-10.86c4.38,1.06,6.57,1.83,6.57,2.33,0,.14-.09.26-.27.37l-.69.42v8.64h3.82l1.11-1.59.56-.71c.23-.3.42-.52.56-.67a.61.61,0,0,1,.42-.21,4,4,0,0,1,1.43.8,20.28,20.28,0,0,1,2.07,1.69c.63.61.95,1,.95,1.28q-.21.84-1.32.84H158a30.77,30.77,0,0,1,3.85.85q1.08.38,1.08.69c0,.11-.16.25-.47.43l-1,.42a57.78,57.78,0,0,1-6,5.72h4.77L161.47,27c.14-.21.34-.5.59-.85a7,7,0,0,1,.61-.79.61.61,0,0,1,.45-.27,4.39,4.39,0,0,1,1.53.95,26.08,26.08,0,0,1,2.28,2c.71.71,1.06,1.18,1.06,1.43-.1.56-.56.85-1.38.85h-12c0,1.27-.07,3-.21,5.3h4.24l1.27-2c.18-.25.38-.55.61-.9a6.4,6.4,0,0,1,.59-.8.61.61,0,0,1,.45-.27,4.34,4.34,0,0,1,1.53,1,29.17,29.17,0,0,1,2.31,2.12c.72.74,1.09,1.24,1.09,1.49q-.17.84-1.38.84H154.26a26.35,26.35,0,0,1-.95,5.46h7.53l1.37-2.12c.18-.28.4-.61.67-1s.47-.68.63-.88a.65.65,0,0,1,.45-.29,4.77,4.77,0,0,1,1.65,1.09,32,32,0,0,1,2.51,2.28q1.2,1.19,1.2,1.56C169.17,43.8,168.7,44.08,167.89,44.08ZM153.73,28.81Q155.44,23,156,20.7H143.4a10.71,10.71,0,0,1,4.77,2.15,4.05,4.05,0,0,1,1.54,2.94,2.86,2.86,0,0,1-.83,2.07,2.67,2.67,0,0,1-2,.85,3.77,3.77,0,0,1-2.28-1,12.37,12.37,0,0,0-.82-3.57,19,19,0,0,0-1.62-3.32l.27-.16h-3.82a1.43,1.43,0,0,1-1.06.38h-5.3V30.4L137.62,29l-.32-.58q2.92.32,7,.42Zm-14.65-15.5a19.5,19.5,0,0,0-1.35-3.84l.58-.21a12.18,12.18,0,0,1,4.61,2.94,5,5,0,0,1,1.49,3.26,3.07,3.07,0,0,1-.77,2.12,2.39,2.39,0,0,1-1.83.84,3.14,3.14,0,0,1-2.28-1.11A14.93,14.93,0,0,0,139.08,13.31Zm19.69,4.32a38.82,38.82,0,0,0,1.35-4.74,23.4,23.4,0,0,0,.61-4.32l3.76,1.69c1.91.64,2.87,1.13,2.87,1.49s-.2.37-.59.47l-1,.32a33.59,33.59,0,0,1-6.31,5.51Z"/><path class="cls-1" d="M180.76,27.86a12.84,12.84,0,0,0-1.19-4.08,15.75,15.75,0,0,0-2.3-3.66l.53-.37a12.27,12.27,0,0,1,5.93,2.44,4.81,4.81,0,0,1,1.91,3.55,3.07,3.07,0,0,1-.77,2.09,2.45,2.45,0,0,1-1.93.88A3.52,3.52,0,0,1,180.76,27.86ZM185.67,45q.35,1.11.39,1.38a26.67,26.67,0,0,1,.83,2.83,14.36,14.36,0,0,1,.29,3.05,5.43,5.43,0,0,1-1.06,3.52,3.56,3.56,0,0,1-2.92,1.3,2.11,2.11,0,0,1-1.53-.69,3.93,3.93,0,0,1-1-2.06,36.06,36.06,0,0,0,.58-6.42,16.58,16.58,0,0,0-.26-3.26,2.92,2.92,0,0,0-.74-1.67,5.22,5.22,0,0,0-2.6-.79V41.06h2.23a1.5,1.5,0,0,0,.77-.16,3.44,3.44,0,0,0,.66-1q.74-1.42,2.57-6.12t6.49-17l.85.21q-1.22,4.45-2.86,11t-2.49,10.14a25,25,0,0,0-.59,4.56A7.52,7.52,0,0,0,185.67,45Zm-1.41-28.52a15,15,0,0,0-1.4-4.16,29.33,29.33,0,0,0-2.47-4.1l.37-.32a13.77,13.77,0,0,1,6.47,2.65,5.06,5.06,0,0,1,2.07,3.76,3.07,3.07,0,0,1-.82,2.15,2.64,2.64,0,0,1-2,.87A3.81,3.81,0,0,1,184.26,16.46Zm40.28,34.3a11.49,11.49,0,0,1,1.33,4.39,1.52,1.52,0,0,1-.53,1.33,3.08,3.08,0,0,1-1.86.64,5.61,5.61,0,0,1-3.2-1.17,10,10,0,0,1-2.68-2.7,34.68,34.68,0,0,1-2.92-5,33,33,0,0,1-11.34,8.8l-.47-.58a35.39,35.39,0,0,0,5.72-5.78,2.56,2.56,0,0,1-1.59-.63,9.71,9.71,0,0,0-1-2.84,16.47,16.47,0,0,0-1.78-2.78,17.77,17.77,0,0,1-3.1,6.73A18.94,18.94,0,0,1,195,56.27l-.58-.85a16.24,16.24,0,0,0,4.66-6.15A27.62,27.62,0,0,0,201,41c.1-1.06.16-2.31.16-3.76s-.06-3.23-.16-4.9a39.71,39.71,0,0,0-.43-4.06q6,.48,6.05,1.17c0,.14-.13.3-.38.47l-.79.53q-.1,6.59-.42,9.54c.56-1.16,1.16-2.51,1.8-4a33,33,0,0,0,1.32-3.61l2.12,1.33c-.21-1.24-.44-2.81-.69-4.72l-.16-1.33H196.93v2a67.65,67.65,0,0,1-.74,10.82l.05-.06c1.45-1.16,2.23-3.55,2.33-7.15h.85a21.71,21.71,0,0,1,.74,5.25,7.14,7.14,0,0,1-.87,3.94,2.47,2.47,0,0,1-2,1.3,1.54,1.54,0,0,1-.88-.26,1.78,1.78,0,0,1-.61-.74,26.62,26.62,0,0,1-8.11,14.62L187,56.8a33.9,33.9,0,0,0,4.08-12.06,106.68,106.68,0,0,0,1-15.19v-7.2a49.79,49.79,0,0,0-.47-7.42l6.2,3.18H208.7q-.22-4.66-.22-10.76a47.86,47.86,0,0,1,5.3,1.38c1,.35,1.49.65,1.49.9s-.14.35-.43.53l-.9.63v7.32h3.24l2.22-2.92-.16-.1a9.58,9.58,0,0,0-1.16-3,12.32,12.32,0,0,0-2-2.65l.47-.38a10.5,10.5,0,0,1,5,1.65,3.43,3.43,0,0,1,1.6,2.7,2.39,2.39,0,0,1-.4,1.3,2.31,2.31,0,0,1-1,.87,40.76,40.76,0,0,1,3.76,3.24c-.14.53-.62.79-1.43.79H214a80.45,80.45,0,0,0,2.06,17,13.75,13.75,0,0,0,.43-1.48,31.65,31.65,0,0,0,1.11-5.43,32.52,32.52,0,0,0,.26-5.38q6.94,2.49,6.95,3.23c0,.11-.16.23-.48.37l-1,.32A53.12,53.12,0,0,1,218.18,43a22.85,22.85,0,0,0,2.92,4.87q.36.69.69.69c.21,0,.42-.24.63-.74a55.92,55.92,0,0,0,2.65-6.2l.59.11ZM206.26,22.29c1,.85,1.94,1.72,2.86,2.6-.11-1.24-.23-3-.37-5.3H196.93v6.47h6.68Zm6.68,21.79a51.3,51.3,0,0,1-2.18-7.85q-2.49,2.13-5.19,4.08l-.58-.37c-.11,1.13-.27,2.23-.48,3.29A11.12,11.12,0,0,1,209,45.16a4.6,4.6,0,0,1,1.8,2.63C211.65,46.37,212.37,45.14,212.94,44.08Z"/><path class="cls-2" d="M91.77,83.09c1,1.17,1.58,2,1.58,2.36A.62.62,0,0,1,93,86a9.29,9.29,0,0,1-2,.9c-.52.2-1,.41-1.5.64l-2.15,1.2c-3,1.66-5.21,2.82-6.69,3.48l-.13.25c-.29.89-.79,2.26-1.5,4.12a42.33,42.33,0,0,1-5.8,10.13,25,25,0,0,1-9.18,7.51,1.42,1.42,0,0,1-.64.25.19.19,0,0,1-.21-.21c0-.09.18-.29.55-.6a31.5,31.5,0,0,0,6.7-7.81,43.12,43.12,0,0,0,4.11-8.54,20.81,20.81,0,0,0,1.38-6,2.48,2.48,0,0,0-.86-2,5.26,5.26,0,0,0-2.19-1.1.27.27,0,0,1-.21-.25q0-.3,1.11-.63A8.12,8.12,0,0,1,76,87.08a7.49,7.49,0,0,1,3.45.88,4.37,4.37,0,0,1,2.17,2,26.19,26.19,0,0,0,4.33-5,2.7,2.7,0,0,0,.56-1.29c0-.37-.36-.56-1.07-.56a21.38,21.38,0,0,0-3.71.45c-1.59.3-3.26.7-5,1.18a41.13,41.13,0,0,0-4.85,1.72c-1.09.46-1.93.78-2.53,1a5.67,5.67,0,0,1-1.72.28,3.5,3.5,0,0,1-1.71-.58,7.79,7.79,0,0,1-1.89-1.58,7.33,7.33,0,0,1-1.37-2.21,2.35,2.35,0,0,1-.17-.82c0-.37.1-.56.3-.56a2.12,2.12,0,0,1,.68.28,5.23,5.23,0,0,0,.95.41,9,9,0,0,0,3,.39A25.06,25.06,0,0,0,71,82.75c1.86-.23,4.36-.59,7.49-1.1s5.14-.86,6-1.09a10.25,10.25,0,0,0,1.24-.43,5.66,5.66,0,0,1,1.76-.47,1.89,1.89,0,0,1,1,.51A20.85,20.85,0,0,1,91.77,83.09Z"/><path class="cls-2" d="M100.26,112.82c0-.11.27-.34.82-.68A55.86,55.86,0,0,0,114.44,102a43.27,43.27,0,0,0,7-9.46q2-4.08,2-5.19c0-.17-.1-.26-.3-.26s-1.33.18-3.41.54-4.21.78-6.41,1.26a48.23,48.23,0,0,0-5.15,1.38,6.07,6.07,0,0,1-1.84.38,3.5,3.5,0,0,1-2.23-.85,6.51,6.51,0,0,1-1.87-2.37,5.79,5.79,0,0,1-.71-2.35.54.54,0,0,1,.11-.35.32.32,0,0,1,.23-.13,2.11,2.11,0,0,1,.86.35,8.52,8.52,0,0,0,1.83.7,6.69,6.69,0,0,0,1.6.16c1.41,0,4.07-.18,8-.52a56.87,56.87,0,0,0,7.67-1,9.93,9.93,0,0,0,1.59-.6c.35-.14.68-.28,1-.4a2.32,2.32,0,0,1,.79-.2,4.15,4.15,0,0,1,1.7.8,13.36,13.36,0,0,1,2.21,1.8q1,1,1,1.56a1.56,1.56,0,0,1-.26.84,7.58,7.58,0,0,1-.82,1,10,10,0,0,0-1.59,2.14,38.41,38.41,0,0,1-6.5,9.66,37,37,0,0,1-8.43,6.69,74.74,74.74,0,0,1-11.32,5.23,2.22,2.22,0,0,1-.73.22C100.35,113,100.26,113,100.26,112.82ZM129,83.69A4,4,0,0,1,129,78a4,4,0,0,1,2.91-1.18A3.89,3.89,0,0,1,134.78,78,4,4,0,0,1,136,80.86a4.12,4.12,0,0,1-4,4A4,4,0,0,1,129,83.69Zm4.84-.9a2.62,2.62,0,0,0,.82-1.93,2.8,2.8,0,0,0-.82-2,2.61,2.61,0,0,0-1.93-.83,2.71,2.71,0,0,0-2,.83,2.8,2.8,0,0,0-.82,2,2.62,2.62,0,0,0,.82,1.93,2.7,2.7,0,0,0,2,.82A2.6,2.6,0,0,0,133.85,82.79Z"/><path class="cls-2" d="M144.58,114.88c0-.08.06-.17.19-.25s.3-.19.5-.3a28.2,28.2,0,0,0,9.16-6.89,21,21,0,0,0,4.27-8.56,51.5,51.5,0,0,0,1.11-11.58c0-.72,0-1.71-.09-3a5,5,0,0,0-.4-1.74,3.2,3.2,0,0,0-1.1-1.4,3.92,3.92,0,0,0-.94-.47,5.55,5.55,0,0,1-.58-.19.23.23,0,0,1-.15-.24c0-.23.39-.46,1.16-.71a7.47,7.47,0,0,1,2.23-.36,3.25,3.25,0,0,1,.94.09,8,8,0,0,1,3,1.52c.91.73,1.37,1.35,1.37,1.87a4.23,4.23,0,0,1-.34,1.15,4,4,0,0,0-.43,1.59c0,.6,0,1.45-.09,2.53-.06.69-.08,1.19-.08,1.5a39.64,39.64,0,0,1-1.38,10.62,19.28,19.28,0,0,1-5.47,8.63q-4.14,4-12,6.2l-.65.12C144.65,115.05,144.58,115,144.58,114.88Zm4.63-14.37a4,4,0,0,1-1.09-1.26,3.57,3.57,0,0,1-.45-1.78l.08-1a50.53,50.53,0,0,0,.35-5.06,19.72,19.72,0,0,0-.43-5.19,2.56,2.56,0,0,0-2.23-1.93c-.35-.06-.52-.16-.52-.3s.19-.36.56-.65a6.49,6.49,0,0,1,1.37-.77,4.1,4.1,0,0,1,1.59-.34,2.59,2.59,0,0,1,.86.13,6.87,6.87,0,0,1,2.62,1.22,2,2,0,0,1,.73,1.48,3.75,3.75,0,0,1-.13.84,5,5,0,0,0-.17.79,22.55,22.55,0,0,0-.18,3.26c0,.77,0,2,.09,3.56l.17,2.06A23.48,23.48,0,0,1,152.6,98,3.58,3.58,0,0,1,152,100a1.88,1.88,0,0,1-1.59.94A2,2,0,0,1,149.21,100.51Z"/><path class="cls-3" d="M21.6,64.25a7.06,7.06,0,0,1-6.11-3.51l-.37-.64,0,0a37.77,37.77,0,0,1-3.51,2.57,7.09,7.09,0,0,1-9.53-1.69l-.63-.85a7.08,7.08,0,0,1,.41-9,19.53,19.53,0,0,0,3.91-6.43A32.5,32.5,0,0,0,7,40.47,9.31,9.31,0,0,1,2.74,38h0A9.37,9.37,0,0,1,0,31.36a11.11,11.11,0,0,1,3.12-7.57,8.54,8.54,0,0,0,.38-1.07,9.46,9.46,0,0,0,.33-3.17,7.1,7.1,0,0,1,4.11-6.82c-.13-2.91-.23-3.78-.27-4A7.08,7.08,0,0,1,15.3.51c2.79.25,4.88.51,6.39.79A10.5,10.5,0,0,1,27.36,4c1.4.11,3,.19,4.83.24H43.68a14.53,14.53,0,0,1,1-1.25A7.68,7.68,0,0,1,50.44.32a9.54,9.54,0,0,1,5.92,2.45h0a37.35,37.35,0,0,1,3.06,2.6c1.09,1,3.34,3.19,3.34,6.59a7.1,7.1,0,0,1-.21,1.72,8.1,8.1,0,0,1-1.82,3.44,7.36,7.36,0,0,1,.39,2.37,7.09,7.09,0,0,1-1.76,4.66c-.08.1-.17.19-.26.29v6.81c.07,4.25.21,8.33.42,12.13a7.2,7.2,0,0,1-.42,2.8,11,11,0,0,1,3.23,7.65,10,10,0,0,1-3.17,7.32,10.24,10.24,0,0,1-15.3-1.3,7.3,7.3,0,0,1-.78-1.28,11.19,11.19,0,0,0-1.17-1.86,38.84,38.84,0,0,1-7.59,4.17,49.11,49.11,0,0,1-11.65,3.29A6.54,6.54,0,0,1,21.6,64.25Z"/><path class="cls-3" d="M72,64.25a9.09,9.09,0,0,1-5.39-1.62,7.91,7.91,0,0,1-3.44-6.52c0-.16,0-.32,0-.48q.21-3.08.37-6c.1-1.84.16-4.34.2-7.41v-4a8.7,8.7,0,0,1-5.6-3.77,1,1,0,0,0-.08-.11,9.52,9.52,0,0,1-1.48-5.08,10.22,10.22,0,0,1,2.76-6.9,10.79,10.79,0,0,0,.58-1.67,8.5,8.5,0,0,0,.34-3,7.11,7.11,0,0,1,2-5.53,7.52,7.52,0,0,1,1.21-1c-.09-1-.2-2-.34-2.81A7.09,7.09,0,0,1,71.73.28C75,1,77.1,1.58,78.46,2c.45.15.86.31,1.25.48a7.08,7.08,0,0,1,4.6.35l.43.19a6.86,6.86,0,0,1,2.45-1.64l.53-.22a7.1,7.1,0,0,1,5.86.28A30.63,30.63,0,0,1,98,4.19a7.18,7.18,0,0,1,2.52-2.56,7.09,7.09,0,0,1,6.37-.44c3.15,1.32,5.24,2.27,6.58,3s5.39,2.91,5.39,7.5a7.27,7.27,0,0,1-3.75,6.36c-.64.93-1.33,1.85-2,2.78,4.55,1.86,5.54,5,5.54,7.29a7.33,7.33,0,0,1-1.22,4v9.58c.07,4.24.21,8.32.41,12.13a7,7,0,0,1-.74,3.55,10.29,10.29,0,0,1-5.61,4.68,15.45,15.45,0,0,1-5.76,1.15A8.23,8.23,0,0,1,99,60H91.37a9.55,9.55,0,0,1-2.26,1.82,15.07,15.07,0,0,1-7.35,2A9.11,9.11,0,0,1,77.88,63l-.06,0A14.89,14.89,0,0,1,72,64.25Z"/><path class="cls-3" d="M164.39,64.41a7.07,7.07,0,0,1-3.17-.75,23.9,23.9,0,0,1-8.7-7.3c-.52.43-1.05.85-1.61,1.26-3.7,2.69-8.7,4.83-15.29,6.52a7.12,7.12,0,0,1-5.23-.69,23,23,0,0,1-4.12.81,7.07,7.07,0,0,1-7.84-6.45,7.09,7.09,0,0,1-4.59-6.63v-.74a7.18,7.18,0,0,1,3.31-6,7,7,0,0,1-1-2l-2.34-7a7.07,7.07,0,0,1,3.13-8.34,7.16,7.16,0,0,1-1.58-2L114,22.43a7.08,7.08,0,0,1,5.6-10.31c-.09-1.48-.24-2.78-.42-3.89a7.08,7.08,0,0,1,8.63-8c3.13.74,5.2,1.3,6.52,1.76a15.19,15.19,0,0,1,1.6.65h0A7.07,7.07,0,0,1,140,2.37l.11-.12A7.11,7.11,0,0,1,146.58.58c.84.2,1.69.41,2.52.64A7.09,7.09,0,0,1,154,.62c1.53.37,3.08.75,4.53,1.21a7.06,7.06,0,0,1,5.09.28l3.44,1.55c2.46.83,7.36,2.72,7.36,8.09a7.28,7.28,0,0,1-.55,2.8A8.15,8.15,0,0,1,176,19.86a6.71,6.71,0,0,1-.22,1.72,8.06,8.06,0,0,1-2,3.63,7.83,7.83,0,0,1,1.3,4.24,7.15,7.15,0,0,1-.12,1.3,8,8,0,0,1-1.67,3.63,7.23,7.23,0,0,1,.25,1.91,6.23,6.23,0,0,1,0,.74,8.79,8.79,0,0,1,2.9,6.2,7.1,7.1,0,0,1-.21,1.72,8.5,8.5,0,0,1-1,2.37,7,7,0,0,1,.89,3.44v.68a7.09,7.09,0,0,1-4.65,6.66,7.08,7.08,0,0,1-7,6.31Z"/><path class="cls-3" d="M187.65,64.36a7.08,7.08,0,0,1-2.35-.4,12.06,12.06,0,0,1-2.1.19,9.24,9.24,0,0,1-6.55-2.77,10.89,10.89,0,0,1-2.9-5.74,7.27,7.27,0,0,1,0-2.59,29.48,29.48,0,0,0,.47-4.72,7.09,7.09,0,0,1-3.6-6.16V41.06a7.08,7.08,0,0,1,5.56-6.92c.08-.21.17-.43.27-.67l-.1-.08a7.08,7.08,0,0,1-2.62-4.77,6.23,6.23,0,0,0-.58-1.87,8.65,8.65,0,0,0-1.24-2,7.08,7.08,0,0,1,1.31-10.42l.53-.37a6.52,6.52,0,0,1,1.47-.79c-.18-.28-.37-.55-.56-.82a7.08,7.08,0,0,1,1.13-9.52l.37-.32a7.12,7.12,0,0,1,6-1.58c4.22.82,7.42,2.21,9.78,4.27a14.33,14.33,0,0,1,2.91,3.43h0l4.68,2.4h1.93c0-1.18,0-2.41,0-3.67A7.08,7.08,0,0,1,210,.43,58.64,58.64,0,0,1,216,2a7.52,7.52,0,0,1,1.5,0,16.91,16.91,0,0,1,8.41,3.06,10.4,10.4,0,0,1,4.37,8.32v.1l.23.22a7.07,7.07,0,0,1,1.91,6.91,7.94,7.94,0,0,1-1.55,3.05,7,7,0,0,1,1,3.87,7.35,7.35,0,0,1-2.37,5.36c-.22.86-.44,1.69-.68,2.52a7.08,7.08,0,0,1,3.85,7.19l-.89,7.14a15.12,15.12,0,0,1,1.15,5.4,8.56,8.56,0,0,1-3.43,7.05,10.11,10.11,0,0,1-6,2,12.58,12.58,0,0,1-7.26-2.44,18.34,18.34,0,0,1-2.88-2.5,41.6,41.6,0,0,1-6.93,4.19,7.09,7.09,0,0,1-7.79-1.11l-.25.14a7.06,7.06,0,0,1-6.23.28A7.1,7.1,0,0,1,187.65,64.36Z"/><path class="cls-3" d="M63.45,121.54a7.32,7.32,0,0,1-7.3-7.3,7.79,7.79,0,0,1,3.07-6,24.66,24.66,0,0,0,5.22-6.09A36.32,36.32,0,0,0,67.9,95a2.41,2.41,0,0,0,.08-.25,10.44,10.44,0,0,1-5.63-1.55,14.91,14.91,0,0,1-3.58-3,14.47,14.47,0,0,1-2.69-4.33L56,85.73a9.44,9.44,0,0,1-.6-3.24,7.44,7.44,0,0,1,7.39-7.64,8.25,8.25,0,0,1,3.89,1,6.48,6.48,0,0,0,.78,0A18.45,18.45,0,0,0,70,75.74l.13,0c1.79-.22,4.22-.58,7.24-1.06,3.63-.58,4.87-.84,5.26-.93l.35-.11.19-.08a11.62,11.62,0,0,1,4.35-1,8.52,8.52,0,0,1,5.27,1.92A26.86,26.86,0,0,1,97,78.35h0c1.77,2,3.41,4.18,3.41,7.1A7.7,7.7,0,0,1,96.78,92a16.33,16.33,0,0,1-3.31,1.55l-.71.31-1.91,1.06c-1.73,1-3.22,1.77-4.49,2.42-.2.55-.43,1.14-.68,1.8A49.86,49.86,0,0,1,78.91,111a32.24,32.24,0,0,1-11.51,9.48A8,8,0,0,1,63.45,121.54Zm-3-13.42ZM66.92,76h0Zm-.45-.14h0Z"/><path class="cls-3" d="M100.52,120.12a7.24,7.24,0,0,1-7.34-7.3c0-2.7,1.38-4.95,4.12-6.68l.27-.16A49.67,49.67,0,0,0,109,97.4a11.42,11.42,0,0,1-2.64.33,10.63,10.63,0,0,1-6.66-2.41,13.63,13.63,0,0,1-3.82-4.8,12.5,12.5,0,0,1-1.41-5.45,7.58,7.58,0,0,1,1.74-4.87,7.39,7.39,0,0,1,5.68-2.69,8.52,8.52,0,0,1,4.1,1.12l.17.08c.68,0,2.49-.06,7.39-.49a57.51,57.51,0,0,0,6.42-.76l.67-.28.75-.31a11.23,11.23,0,0,1,10.49-7.17,11.12,11.12,0,0,1,7.84,19,11.06,11.06,0,0,1-3.41,2.36c-.14.28-.29.55-.46.82a13.69,13.69,0,0,1-1.61,2,5.65,5.65,0,0,0-.48.57,45.92,45.92,0,0,1-7.63,11.26,44.42,44.42,0,0,1-10,8,82.79,82.79,0,0,1-12.3,5.71A9,9,0,0,1,100.52,120.12ZM130.89,78a19.82,19.82,0,0,1,3.35,2.74c.15.15.36.37.6.64a2.94,2.94,0,0,0,0-.51,3.19,3.19,0,0,0-.88-2.18,3,3,0,0,0-3.12-.69Zm-10.53-.61-.28.06h0Z"/><path class="cls-3" d="M144.79,122.14a7.29,7.29,0,0,1-7.29-7.26,7.42,7.42,0,0,1,3.34-6.15c.24-.16.54-.35.91-.56l.31-.16a34.78,34.78,0,0,0,3-1.74l-.07,0a10.94,10.94,0,0,1-3.06-3.48,10.55,10.55,0,0,1-1.38-5.27c0-.22,0-.43,0-.65l.09-.94s0-.07,0-.11c.25-2.36.3-3.65.3-4.31s0-1,0-1.43a7.36,7.36,0,0,1-3.16-6,7.74,7.74,0,0,1,3.32-6.26,13.46,13.46,0,0,1,2.94-1.69,10.7,10.7,0,0,1,7.11-.51,9.14,9.14,0,0,1,4.36-2.74,14.64,14.64,0,0,1,4.37-.69,10.27,10.27,0,0,1,2.88.35,15.34,15.34,0,0,1,5.48,2.8c2.68,2.13,4,4.63,4,7.41a9.85,9.85,0,0,1-.78,3.62c0,.57,0,1.24-.08,2,0,.08,0,.15,0,.23,0,.4-.06.71-.06.92a46.92,46.92,0,0,1-1.65,12.55,26.37,26.37,0,0,1-7.37,11.79c-3.6,3.45-8.65,6.1-15,7.9a5.29,5.29,0,0,1-.54.13l-.64.13A7.3,7.3,0,0,1,144.79,122.14Z"/><path class="cls-3" d="M21.6,61.34A4.19,4.19,0,0,1,18,59.27l-.37-.64a4.17,4.17,0,0,1,1.76-5.84c.49-.24,1-.49,1.45-.77l-.21-.17a4.3,4.3,0,0,1-1.06-1.41l-.6,1a29.65,29.65,0,0,1-9,8.77,4.17,4.17,0,0,1-5.61-1l-.63-.85A4.15,4.15,0,0,1,4,53.05a23,23,0,0,0,4.48-7.38,37,37,0,0,0,1.94-7.89,7.2,7.2,0,0,1-1.05.08,6.44,6.44,0,0,1-6.45-6.5,8.39,8.39,0,0,1,2.6-5.87h0a7.57,7.57,0,0,0,.78-1.95,12.22,12.22,0,0,0,.44-4.16A4.17,4.17,0,0,1,10.58,15L11,15c-.19-5-.34-6.35-.4-6.73a4.22,4.22,0,0,1,1-3.53A4.13,4.13,0,0,1,15,3.41c5.32.48,9.46.85,10.89,3.33,1.73.18,3.82.3,6.22.36h13l.69-1a11.15,11.15,0,0,1,1-1.21,4.82,4.82,0,0,1,3.6-1.69A6.86,6.86,0,0,1,54.6,5.09h0a33,33,0,0,1,2.81,2.39C58.6,8.61,59.86,10,59.86,12a4.3,4.3,0,0,1-.13,1A5.14,5.14,0,0,1,57,16.36a5.07,5.07,0,0,1,1.17,3.13,4.13,4.13,0,0,1-1,2.74,7.16,7.16,0,0,1-1,.93V31.3c.07,4.25.21,8.38.42,12.23a4.19,4.19,0,0,1-.79,2.68,5.15,5.15,0,0,1-.43.52c2.68,2.09,4,4.47,4,7.1A7,7,0,0,1,57.17,59a7.26,7.26,0,0,1-5.09,2,7.34,7.34,0,0,1-5.9-3,3.59,3.59,0,0,1-.46-.75,16,16,0,0,0-2.48-3.59l-.55-.59a5.42,5.42,0,0,1-1.53.58l-.15,0a34.58,34.58,0,0,1-7.82,4.45,46.18,46.18,0,0,1-10.95,3.09A4.6,4.6,0,0,1,21.6,61.34Zm2.73-26.49c.32.15.64.31,1,.48V29.24l-.51.36C24.65,31.5,24.51,33.25,24.33,34.85Z"/><path class="cls-3" d="M72,61.34a6.37,6.37,0,0,1-3.71-1.08,5.06,5.06,0,0,1-2.21-4.15,2.53,2.53,0,0,1,0-.28c.14-2.07.26-4.07.37-6s.17-4.41.2-7.53V35.4a7,7,0,0,1-1,.07,6,6,0,0,1-5.07-2.65,6.63,6.63,0,0,1-1.06-3.58,7.22,7.22,0,0,1,2.2-5.16,10.54,10.54,0,0,0,1-2.62,11.66,11.66,0,0,0,.44-4A4.16,4.16,0,0,1,66.55,13,48.43,48.43,0,0,0,66,7.87a4.17,4.17,0,0,1,5-4.75c3.1.71,5.21,1.26,6.46,1.68a9.56,9.56,0,0,1,2,.87l.08,0a4.19,4.19,0,0,1,3.53-.09,28.43,28.43,0,0,1,2.65,1.3A3.45,3.45,0,0,1,86,6.42a4.18,4.18,0,0,1,2.32-2.31l.53-.21a4.16,4.16,0,0,1,3.45.16,21.21,21.21,0,0,1,7.3,5.69A20,20,0,0,0,100,7.31a4.13,4.13,0,0,1,2-3.17,4.17,4.17,0,0,1,3.75-.27c3,1.27,5.09,2.21,6.33,2.88s3.86,2.09,3.86,4.94a4.48,4.48,0,0,1-2.82,4.1A56.74,56.74,0,0,1,108.27,22l-.33.37c1.41.35,2.48.65,3.25.91,1.22.41,4.47,1.51,4.47,4.87a4.39,4.39,0,0,1-1.21,3V41.8c.06,4.23.2,8.37.41,12.23a4.21,4.21,0,0,1-.43,2.09,7.44,7.44,0,0,1-4.09,3.28,12.55,12.55,0,0,1-4.68.93,5.19,5.19,0,0,1-5-3.23H89.88a5.86,5.86,0,0,1-2.26,2.23,11.46,11.46,0,0,1-2.74,1.14,11.88,11.88,0,0,1-3.12.45A5.86,5.86,0,0,1,78,59.69a14.9,14.9,0,0,1-1.34.66A12,12,0,0,1,72,61.34ZM91.54,27.06l.92.4c.15-.52.3-1,.44-1.55a4.17,4.17,0,0,1,0-1.17,9,9,0,0,1-.81-.42,7.06,7.06,0,0,1-1.37,1.09A3.91,3.91,0,0,1,91.54,27.06Z"/><path class="cls-3" d="M164.39,61.5a4.24,4.24,0,0,1-1.87-.44,21.16,21.16,0,0,1-8.1-7.05c-.5-.73-1-1.47-1.39-2.22a24.19,24.19,0,0,1-3.83,3.48c-3.4,2.47-8.08,4.45-14.3,6a4.17,4.17,0,0,1-4-1.12A17.5,17.5,0,0,1,126,61.37a4.19,4.19,0,0,1-4.63-3.92,9.37,9.37,0,0,0-.26-2,6.22,6.22,0,0,0-.9-.22,4.17,4.17,0,0,1-3.4-4.1v-.74a4.16,4.16,0,0,1,4.49-4.16l1.39.1v-2a4.18,4.18,0,0,1-3.76-2.85l-2.33-7a4.14,4.14,0,0,1,.32-3.37,4.19,4.19,0,0,1,2.71-2l3.06-.69V25.86a4.16,4.16,0,0,1-4.72-2.12l-1.38-2.65a4.17,4.17,0,0,1,4.4-6c.5.08,1.06.15,1.67.21a56.9,56.9,0,0,0-.6-7.51A4.16,4.16,0,0,1,127.09,3c3,.71,5,1.25,6.24,1.67a9.23,9.23,0,0,1,2.36,1.13,4.78,4.78,0,0,1,.61-.28l.59-.21a4.11,4.11,0,0,1,3,0c.4.16.77.33,1.14.5a4.16,4.16,0,0,1,4.86-2.49c1.32.33,2.58.64,3.72,1a4.17,4.17,0,0,1,3.74-.93,51.62,51.62,0,0,1,5.34,1.49,4.16,4.16,0,0,1,3.76-.18L166,6.37c2.16.72,5.52,2,5.52,5.38A4.59,4.59,0,0,1,170.17,15l.63.58a6,6,0,0,1,2.26,4.31,4.29,4.29,0,0,1-.12,1,5.16,5.16,0,0,1-3.54,3.73l.48.47a6.25,6.25,0,0,1,2.28,4.38,3.84,3.84,0,0,1-.07.76,5.16,5.16,0,0,1-2.29,3.41,4.94,4.94,0,0,1,.83,2.67,4,4,0,0,1-.08.77,5.28,5.28,0,0,1-.25.9c.26.25.52.5.77.76,1.22,1.22,2.42,2.57,2.42,4.51a3.83,3.83,0,0,1-.13,1,5.09,5.09,0,0,1-2.09,3,4.16,4.16,0,0,1,1.9,3.5v.68a4.17,4.17,0,0,1-3.25,4.07,2.62,2.62,0,0,0-1.17.47,4.63,4.63,0,0,0-.19,1.43,4.16,4.16,0,0,1-4.17,4.09ZM136.44,49v1.49a21.27,21.27,0,0,0,2.69-1.78l-1.34.24A4.39,4.39,0,0,1,136.44,49Zm20-42.3-.06,0Zm-25.57-.11-.06,0Z"/><path class="cls-3" d="M187.65,61.45a4.21,4.21,0,0,1-2.06-.55,8.47,8.47,0,0,1-2.39.33,6.26,6.26,0,0,1-4.49-1.91,8,8,0,0,1-2.09-4.23,4.09,4.09,0,0,1,0-1.52,32.5,32.5,0,0,0,.51-5.68c0-.67,0-1.19-.06-1.6a4.17,4.17,0,0,1-3.54-4.12V41.06a4.17,4.17,0,0,1,4.17-4.17h.48c.38-.86,1-2.28,1.86-4.58l0,0a8.61,8.61,0,0,1-1.89-1.15,4.19,4.19,0,0,1-1.54-2.81,9,9,0,0,0-.83-2.78,12,12,0,0,0-1.68-2.69,4.17,4.17,0,0,1,.77-6.14l.53-.37a4.11,4.11,0,0,1,3.14-.68c.45.08.88.17,1.3.27a13.87,13.87,0,0,0-.73-1.77A24.92,24.92,0,0,0,177,10.64,4.17,4.17,0,0,1,177.68,5l.37-.32a4.15,4.15,0,0,1,3.5-.93c3.71.72,6.46,1.89,8.42,3.6a10.64,10.64,0,0,1,2.74,3.53,4.59,4.59,0,0,1,.77.31l5.31,2.72h5.59c0-2-.07-4.25-.07-6.59a4.21,4.21,0,0,1,1.56-3.26,4.16,4.16,0,0,1,3.52-.81,51.92,51.92,0,0,1,5.8,1.52l.48.18a4.1,4.1,0,0,1,1.44-.07,14.09,14.09,0,0,1,7,2.47,7.4,7.4,0,0,1,3.23,6,6.55,6.55,0,0,1-.13,1.25c.42.38.84.77,1.24,1.16a4.16,4.16,0,0,1,1.13,4.07,5.13,5.13,0,0,1-3.21,3.52c1.75,1.09,2.61,2.31,2.61,4.15a4.36,4.36,0,0,1-2,3.69,64.66,64.66,0,0,1-1.8,6.24,3.08,3.08,0,0,1,.68.07l.59.1a4.16,4.16,0,0,1,3.39,4.62l-1,7.87a13.25,13.25,0,0,1,1.22,5,5.59,5.59,0,0,1-2.24,4.7,7.23,7.23,0,0,1-4.32,1.44,9.73,9.73,0,0,1-5.59-1.92,14.14,14.14,0,0,1-3.74-3.78l-.33-.47a37.71,37.71,0,0,1-8.67,5.7,4.18,4.18,0,0,1-5-1.11l-.48-.59a4.49,4.49,0,0,1-.4-.57c-.71.48-1.47.94-2.27,1.38a4.19,4.19,0,0,1-5.13-.9c-.45.47-.92.92-1.4,1.35A4.17,4.17,0,0,1,187.65,61.45Zm25-54.83Z"/><path class="cls-3" d="M63.45,118.63a4.35,4.35,0,0,1-4.39-4.39,4.94,4.94,0,0,1,2-3.79,27.37,27.37,0,0,0,5.82-6.79A39.69,39.69,0,0,0,70.66,96a27.8,27.8,0,0,0,1-3.68l-.29-.11a4.54,4.54,0,0,1-1.16-.66,7.78,7.78,0,0,1-6.41-.8,11.81,11.81,0,0,1-2.89-2.41,11.46,11.46,0,0,1-2.15-3.46l0-.1a6.34,6.34,0,0,1-.43-2.24,4.51,4.51,0,0,1,4.48-4.73,5.53,5.53,0,0,1,2.66.78l.19.09.24.08h0a6.11,6.11,0,0,0,1.58.13,21.32,21.32,0,0,0,2.93-.22q2.85-.36,7.42-1.08c3.73-.6,5.08-.88,5.57-1a5.76,5.76,0,0,0,.68-.23l.16-.06a8.88,8.88,0,0,1,3.28-.76,5.65,5.65,0,0,1,3.53,1.35,24.2,24.2,0,0,1,3.81,3.46h0c1.65,1.82,2.66,3.32,2.66,5.15a4.78,4.78,0,0,1-2.29,4,13.66,13.66,0,0,1-2.77,1.29c-.35.14-.69.28-1,.44l-2,1.12c-2.19,1.22-4,2.17-5.41,2.88C83.74,96,83.39,97,83,98.06a46.57,46.57,0,0,1-6.37,11.16,29.3,29.3,0,0,1-10.54,8.66A5.25,5.25,0,0,1,63.45,118.63ZM90.79,82.44h0Z"/><path class="cls-3" d="M100.52,117.21a4.37,4.37,0,0,1-4.43-4.39,5,5,0,0,1,2.76-4.21l.16-.1a51.74,51.74,0,0,0,12.37-9.36,47,47,0,0,0,5.36-6.71c-.81.16-1.63.34-2.45.52a44.15,44.15,0,0,0-4.67,1.23,9.83,9.83,0,0,1-3.22.62A7.71,7.71,0,0,1,101.56,93a10.62,10.62,0,0,1-3-3.79,9.66,9.66,0,0,1-1.13-4.18,4.71,4.71,0,0,1,1.07-3,4.49,4.49,0,0,1,3.44-1.64,5.74,5.74,0,0,1,2.78.81,6.23,6.23,0,0,0,.84.35,4.2,4.2,0,0,0,.67,0c.88,0,2.91-.08,7.62-.49a54,54,0,0,0,7-.87h0c.08,0,.36-.13,1-.39L123,79.4a7.66,7.66,0,0,1,.85-.28A8,8,0,0,1,126.08,75a8.18,8.18,0,0,1,5.84-2.38,8.2,8.2,0,0,1,5.78,14,8.13,8.13,0,0,1-3.57,2.13,6.16,6.16,0,0,1-.7,1.55,11.77,11.77,0,0,1-1.28,1.62,5.09,5.09,0,0,0-.91,1.17,43.08,43.08,0,0,1-7.2,10.64,41.5,41.5,0,0,1-9.37,7.45,80.8,80.8,0,0,1-11.89,5.51A6,6,0,0,1,100.52,117.21Zm31.32-36.28.08,0s0,0,0,0h0s0-.07,0-.11h0s0,0,0-.07l-.07,0-.05,0a.3.3,0,0,0,0,.12s0,0,.05.06ZM121,80.22l-.09,0Z"/><path class="cls-3" d="M144.79,119.23a4.32,4.32,0,0,1-4.38-4.35,4.43,4.43,0,0,1,2.05-3.72c.19-.13.44-.29.74-.46l.18-.1a25,25,0,0,0,7.54-5.47,6.07,6.07,0,0,1-4.17-1.25h0a8.07,8.07,0,0,1-2.26-2.58,7.65,7.65,0,0,1-1-3.83c0-.13,0-.26,0-.38l.09-1c.22-2.06.33-3.61.33-4.68a31.63,31.63,0,0,0-.13-3.25A4.4,4.4,0,0,1,140.75,84a4.91,4.91,0,0,1,2.19-4,10.48,10.48,0,0,1,2.29-1.31,7.8,7.8,0,0,1,5.31-.36,15.18,15.18,0,0,1,2,.73c.32-1.23,1.3-2.7,3.92-3.53a11.66,11.66,0,0,1,3.49-.56,7.75,7.75,0,0,1,2.09.24,12.44,12.44,0,0,1,4.46,2.28c.72.58,2.94,2.34,2.94,5.13a7,7,0,0,1-.64,2.7,1.42,1.42,0,0,1-.08.18l-.05.13c0,.64,0,1.45-.09,2.48a.57.57,0,0,0,0,.13c-.05.53-.07.91-.07,1.15A43.94,43.94,0,0,1,167,101.25a23.4,23.4,0,0,1-6.59,10.49c-3.25,3.11-7.89,5.53-13.79,7.2l-.31.08-.65.12A3.75,3.75,0,0,1,144.79,119.23Z"/><path class="cls-4" d="M52.08,8.41a28.42,28.42,0,0,1,2.46,2.09c.76.73,1.14,1.21,1.14,1.46-.14.56-.6.85-1.37.85H43a58,58,0,0,1-3.45,5.77h6.36l1.28-1.69.55-.72a8.33,8.33,0,0,1,.66-.74.77.77,0,0,1,.48-.24,4.92,4.92,0,0,1,1.62.93,24.76,24.76,0,0,1,2.41,2q1.11,1,1.11,1.41a3.34,3.34,0,0,1-2,1.06V31.3q.11,6.58.42,12.46a4.27,4.27,0,0,1-1.85,1.16,9,9,0,0,1-3.39.59H46.09V43.18h-11v1.59c0,.14-.12.28-.37.42,4,2.3,6,3.69,6,4.19,0,.1-.16.19-.48.26l-.95.11a28.55,28.55,0,0,1-7.74,4.61,41.88,41.88,0,0,1-10,2.81l-.38-.64a36.75,36.75,0,0,0,7.61-5.06,30,30,0,0,0,5.59-6.07,9.15,9.15,0,0,1-3.92.8H29.45V21.34a2.34,2.34,0,0,1-.8-.11,76.51,76.51,0,0,1-7.94,6.1,85.43,85.43,0,0,1-1,10.18,15.54,15.54,0,0,1,6.76,3.92,7.18,7.18,0,0,1,2.14,4.77,3.79,3.79,0,0,1-.82,2.49,2.52,2.52,0,0,1-2,1,3.71,3.71,0,0,1-2.44-1,16.46,16.46,0,0,0-1.29-4.85,22.42,22.42,0,0,0-2.68-4.69,29.44,29.44,0,0,1-3.92,10,25.45,25.45,0,0,1-7.74,7.52l-.64-.85a26.66,26.66,0,0,0,5.3-8.71A43,43,0,0,0,14.77,36.5q.59-5.78.63-14.26L15.3,20Q15,9.46,14.66,7.56,22.3,8.25,22.29,9q0,.21-.42.48l-.95.58c0,2.37,0,4.1-.06,5.2q0,6.72-.1,9.75a42.63,42.63,0,0,0,3-9.17L29.45,20a33.46,33.46,0,0,0-.21-4.13l6.46,2.75h1q.16-1.32.42-5.77H33.37a41.39,41.39,0,0,0-7,.74l-1.33-2.7q2.91.32,7.05.42H47.31l1.38-1.91c.18-.24.37-.52.58-.82a7.82,7.82,0,0,1,.64-.79c.21-.23.39-.35.53-.35A5,5,0,0,1,52.08,8.41ZM7.75,33a2.24,2.24,0,0,1-.67-1.67,4.36,4.36,0,0,1,1.43-3,9.11,9.11,0,0,0,1.78-3.66,16.32,16.32,0,0,0,.61-5.56l.69-.06a23.4,23.4,0,0,1,1.8,8.27,7.19,7.19,0,0,1-1.85,5.36,3.16,3.16,0,0,1-2.18.95A2.2,2.2,0,0,1,7.75,33Zm38.34-6.92V20h-11v6.09Zm-11,7.74h11v-6.2h-11Zm0,7.84h11V35.33h-11ZM41.64,46Q48.79,47.26,52,49.43c2.15,1.45,3.23,2.91,3.23,4.4A2.89,2.89,0,0,1,54.31,56a3.15,3.15,0,0,1-2.23.9,3.21,3.21,0,0,1-2.6-1.37A19.64,19.64,0,0,0,46.36,51a24.85,24.85,0,0,0-5.09-4.3Z"/><path class="cls-4" d="M21.61,57.54a.39.39,0,0,1-.33-.18l-.37-.64a.39.39,0,0,1,0-.3.35.35,0,0,1,.19-.22,37.07,37.07,0,0,0,7.53-5,32.25,32.25,0,0,0,4.82-5,10.29,10.29,0,0,1-2.91.39H29.45a.38.38,0,0,1-.38-.37V21.7l-.32-.05a79.08,79.08,0,0,1-7.68,5.89,85.35,85.35,0,0,1-.9,9.71,15.71,15.71,0,0,1,6.62,3.93,7.6,7.6,0,0,1,2.24,5,4.22,4.22,0,0,1-.91,2.73c-1.24,1.53-3.33,1.49-5,0a.38.38,0,0,1-.13-.25A16.22,16.22,0,0,0,21.71,44a22.18,22.18,0,0,0-2.14-3.93,29.17,29.17,0,0,1-3.8,9.32A25.86,25.86,0,0,1,7.92,57a.39.39,0,0,1-.5-.09l-.64-.85a.39.39,0,0,1,0-.48A26.65,26.65,0,0,0,12,47,42.6,42.6,0,0,0,14.4,36.46c.38-3.82.59-8.61.63-14.22L14.92,20c-.21-7-.42-11.16-.63-12.41a.36.36,0,0,1,.1-.31.36.36,0,0,1,.31-.12c8,.72,8,1.32,8,1.8s-.34.64-.6.8l-.78.47c0,2.24,0,3.92-.05,5,0,3.18,0,5.76-.06,7.71a37.34,37.34,0,0,0,2.18-7.2.37.37,0,0,1,.22-.29.41.41,0,0,1,.37,0l5.12,3.7a32.39,32.39,0,0,0-.2-3.34.36.36,0,0,1,.14-.35.38.38,0,0,1,.37,0l6.4,2.73h.6c.09-.93.21-2.58.36-5H33.37a43.09,43.09,0,0,0-6.93.74.38.38,0,0,1-.4-.21L24.71,11a.38.38,0,0,1,.38-.54c1.92.21,4.29.36,7,.43h15L49,8.32a10.47,10.47,0,0,1,.67-.83A1.14,1.14,0,0,1,50.44,7c.21,0,.55.08,1.87,1.08h0a29.15,29.15,0,0,1,2.49,2.12c1.11,1,1.26,1.45,1.26,1.73a1.54,1.54,0,0,1-1.75,1.22H43.24c-1.16,2.14-2.15,3.82-3,5h5.46l1.16-1.55c.1-.14.29-.38.56-.72a6.21,6.21,0,0,1,.7-.79,1.12,1.12,0,0,1,.73-.33c.23,0,.61.12,1.84,1a25.5,25.5,0,0,1,2.44,2c1.09,1,1.24,1.4,1.24,1.68a.37.37,0,0,1-.1.24,3.49,3.49,0,0,1-1.92,1.12V31.3c.07,4.35.22,8.54.43,12.44a.42.42,0,0,1-.07.24,4.69,4.69,0,0,1-2,1.29,9.25,9.25,0,0,1-3.53.61H46.09a.36.36,0,0,1-.37-.37v-2H35.5v1.22a.72.72,0,0,1-.11.36c5.72,3.32,5.72,3.9,5.72,4.25s-.56.58-.77.63l-.87.1a29.41,29.41,0,0,1-7.76,4.6,42.5,42.5,0,0,1-10,2.83Zm.15-.85,0,.07A41.12,41.12,0,0,0,31.42,54a28.47,28.47,0,0,0,7.64-4.54.33.33,0,0,1,.21-.09l.95-.11h.06C40,48.94,38.9,48,34.74,45.62a30.46,30.46,0,0,1-5.66,6.14A37.46,37.46,0,0,1,21.76,56.69ZM7.57,55.86l.24.32A24.88,24.88,0,0,0,15.14,49,28.61,28.61,0,0,0,19,39.07a.39.39,0,0,1,.29-.29.4.4,0,0,1,.38.14,23,23,0,0,1,2.72,4.77,17.19,17.19,0,0,1,1.31,4.81,3.26,3.26,0,0,0,2.08.82,2.14,2.14,0,0,0,1.75-.87,3.39,3.39,0,0,0,.74-2.25,6.86,6.86,0,0,0-2.05-4.52,15.31,15.31,0,0,0-6.6-3.82.38.38,0,0,1-.25-.42,86.85,86.85,0,0,0,.95-10.13A.37.37,0,0,1,20.5,27,78,78,0,0,0,28.41,21a.39.39,0,0,1,.36-.07,2.11,2.11,0,0,0,.68.09.36.36,0,0,1,.37.37V45.82h.69a8.7,8.7,0,0,0,3.76-.76.35.35,0,0,1,.14,0,.33.33,0,0,1,.15-.16.89.89,0,0,0,.2-.15V43.18a.37.37,0,0,1,.37-.38h11a.38.38,0,0,1,.38.38v2h.74a8.64,8.64,0,0,0,3.25-.55,4.54,4.54,0,0,0,1.61-.95c-.21-3.86-.35-8-.42-12.32V20.55a.4.4,0,0,1,.32-.38,3,3,0,0,0,1.65-.78,5.76,5.76,0,0,0-.95-1,22.93,22.93,0,0,0-2.37-1.94,5.06,5.06,0,0,0-1.41-.85.44.44,0,0,0-.21.14,6.26,6.26,0,0,0-.63.7l-.55.7-1.27,1.7a.38.38,0,0,1-.3.15H39.57a.37.37,0,0,1-.33-.2.37.37,0,0,1,0-.39,61.56,61.56,0,0,0,3.42-5.74.37.37,0,0,1,.33-.2H54.31c.7,0,.91-.25,1-.49a4.53,4.53,0,0,0-1-1.17,29.42,29.42,0,0,0-2.44-2.06,5.45,5.45,0,0,0-1.42-.93,1.13,1.13,0,0,0-.25.22,7.2,7.2,0,0,0-.6.76l-2,2.73a.37.37,0,0,1-.3.16H32.1c-2.45-.07-4.6-.19-6.41-.36l.9,1.84a42.89,42.89,0,0,1,6.78-.7h3.76a.4.4,0,0,1,.28.12.37.37,0,0,1,.1.28c-.18,3-.32,4.91-.43,5.8a.37.37,0,0,1-.37.33h-1a.32.32,0,0,1-.14,0l-5.88-2.51c.1,1,.14,2.18.14,3.54a.38.38,0,0,1-.2.34.39.39,0,0,1-.39,0L24,16.48a45.53,45.53,0,0,1-2.89,8.66.36.36,0,0,1-.42.22.38.38,0,0,1-.3-.38c.07-2,.11-5.27.11-9.73,0-1.12.05-2.87.05-5.2a.38.38,0,0,1,.18-.32l1-.58L21.84,9c-.38-.19-1.75-.59-6.74-1,.19,1.67.38,5.63.57,12l.11,2.22c0,5.66-.25,10.47-.64,14.32a43.79,43.79,0,0,1-2.4,10.72A27.38,27.38,0,0,1,7.57,55.86Zm44.51,1.42a3.51,3.51,0,0,1-2.89-1.53,20.29,20.29,0,0,0-3.11-4.53,24.14,24.14,0,0,0-5-4.23.39.39,0,0,1-.12-.51l.38-.63a.37.37,0,0,1,.38-.18c4.8.82,8.35,2,10.54,3.45s3.4,3.1,3.4,4.71a3.22,3.22,0,0,1-1.08,2.44A3.49,3.49,0,0,1,52.08,57.28ZM41.77,46.56a24.53,24.53,0,0,1,4.87,4.16,20.36,20.36,0,0,1,3.18,4.64,2.79,2.79,0,0,0,4.23.37,2.51,2.51,0,0,0,.84-1.9c0-1.34-1-2.72-3.07-4.09s-5.42-2.49-10-3.29Zm4.32-4.49h-11a.37.37,0,0,1-.37-.38V35.33a.37.37,0,0,1,.37-.37h11a.38.38,0,0,1,.38.37v6.36A.38.38,0,0,1,46.09,42.07ZM35.5,41.32H45.72V35.71H35.5Zm10.59-7.1h-11a.36.36,0,0,1-.37-.37v-6.2a.37.37,0,0,1,.37-.38h11a.38.38,0,0,1,.38.38v6.2A.37.37,0,0,1,46.09,34.22ZM35.5,33.47H45.72V28H35.5Zm-26.14.59a2.58,2.58,0,0,1-1.88-.77,2.63,2.63,0,0,1-.77-1.93,4.72,4.72,0,0,1,1.54-3.23,9,9,0,0,0,1.68-3.5,16.17,16.17,0,0,0,.6-5.44.37.37,0,0,1,.34-.4l.69-.05a.37.37,0,0,1,.38.24,23.92,23.92,0,0,1,1.83,8.4,7.53,7.53,0,0,1-2,5.62A3.5,3.5,0,0,1,9.36,34.06Zm1.93-14.55a16.6,16.6,0,0,1-.64,5.33,9.46,9.46,0,0,1-1.86,3.81,4,4,0,0,0-1.33,2.71A1.88,1.88,0,0,0,8,32.76H8a1.82,1.82,0,0,0,1.35.55,2.71,2.71,0,0,0,1.92-.85A6.82,6.82,0,0,0,13,27.38a22.9,22.9,0,0,0-1.68-7.87Zm34.8,7h-11a.37.37,0,0,1-.37-.38V20a.37.37,0,0,1,.37-.38h11a.38.38,0,0,1,.38.38v6.09A.38.38,0,0,1,46.09,26.49ZM35.5,25.74H45.72V20.39H35.5Z"/><path class="cls-4" d="M68.19,17.15a22.81,22.81,0,0,1,1.27,7.21,10.24,10.24,0,0,1-1.27,5.51A3.17,3.17,0,0,1,67,30.93a2.86,2.86,0,0,1-1.38.37,1.77,1.77,0,0,1-1.59-.79,2.3,2.3,0,0,1-.37-1.27,3.24,3.24,0,0,1,1.22-2.44,12.79,12.79,0,0,0,1.85-4.21,15.42,15.42,0,0,0,.58-5.49Zm8.32,25.6q.1,6.57.43,12.46a3.78,3.78,0,0,1-1.88,1.3,7.85,7.85,0,0,1-3,.66,2.25,2.25,0,0,1-1.3-.32.9.9,0,0,1-.45-.74q.21-3.13.37-6.07t.21-7.71V18.05a69.17,69.17,0,0,0-.69-10.86q4.41,1,6.07,1.56c1.11.37,1.67.7,1.67,1s-.14.3-.42.48l-1,.58v5.62l.53-.26a11.88,11.88,0,0,1,4.35,3.1,5.37,5.37,0,0,1,1.38,3.31,2.88,2.88,0,0,1-.64,1.93,2,2,0,0,1-1.59.77,2.69,2.69,0,0,1-1.85-.85,12.2,12.2,0,0,0-.59-3.89,21.51,21.51,0,0,0-1.59-3.9Zm9.7,5.78a46.91,46.91,0,0,0,7.05-11.4A51.79,51.79,0,0,0,86.9,30.4l.48-.47a43.6,43.6,0,0,1,7.52,3.44,74.53,74.53,0,0,0,2.39-7.79L97,25.32a50.46,50.46,0,0,0,4.14-7.48,40.15,40.15,0,0,0,1.93-5.19,26.32,26.32,0,0,0,1-4.93q4.29,1.8,6,2.7c1.11.6,1.67,1,1.67,1.27s-.14.22-.43.32l-1,.32a50.06,50.06,0,0,1-5.22,6.86,39.87,39.87,0,0,1-6.6,6Q104,27,104,27.59c0,.11-.16.23-.48.38l-.95.31a84.43,84.43,0,0,1-3.87,7.79,15.75,15.75,0,0,1,3.39,4.16A8.25,8.25,0,0,1,103.17,44a3.32,3.32,0,0,1-.66,2.15,2.1,2.1,0,0,1-1.72.82,3.34,3.34,0,0,1-2-.63,25.7,25.7,0,0,0-3.08-5.89,38.86,38.86,0,0,1-9.54,9.38v1.54h18.45V36.55A69.17,69.17,0,0,0,104,25.69c2.82.63,4.78,1.14,5.88,1.51s1.64.68,1.64.92-.12.25-.37.43l-.85.58V41.8q.11,6.57.43,12.45a3.62,3.62,0,0,1-1.91,1.28,8.44,8.44,0,0,1-3.13.63c-.81,0-1.22-.35-1.22-1.06l.22-1.06V52.93H86.21v2.12c0,.17-.24.4-.71.69a7.32,7.32,0,0,1-1.75.71,7.1,7.1,0,0,1-2,.29,1.82,1.82,0,0,1-1.14-.31,1,1,0,0,1-.4-.75c.14-1.83.26-3.65.35-5.45s.15-4.09.18-6.84V36.66a69.31,69.31,0,0,0-.69-10.87c5,1.1,7.42,1.89,7.42,2.39,0,.14-.12.3-.37.47l-.9.53ZM81.5,9.36A16.81,16.81,0,0,1,88,13.81,7.92,7.92,0,0,1,90,18.74a3.87,3.87,0,0,1-.74,2.44,2.3,2.3,0,0,1-1.91.95,3.54,3.54,0,0,1-2.28-1,22.64,22.64,0,0,0-1.43-5.73A42.45,42.45,0,0,0,81,9.63Zm8.85-1.59a17.24,17.24,0,0,1,6.07,4.75,8.56,8.56,0,0,1,1.93,5,4.32,4.32,0,0,1-.77,2.63,2.27,2.27,0,0,1-1.88,1A3.44,3.44,0,0,1,93.31,20Q93.1,15.3,89.82,8Z"/><path class="cls-4" d="M72,57.54a2.59,2.59,0,0,1-1.52-.38,1.28,1.28,0,0,1-.61-1C70,54,70.15,52,70.26,50s.17-4.53.21-7.7V18.05a68.51,68.51,0,0,0-.69-10.8.37.37,0,0,1,.12-.33.39.39,0,0,1,.34-.1c2.93.67,5,1.2,6.1,1.58,1.37.45,1.93.84,1.93,1.33s-.35.64-.6.8l-.78.47v4.8a.37.37,0,0,1,.31,0A12.28,12.28,0,0,1,81.68,19a5.77,5.77,0,0,1,1.46,3.55,3.3,3.3,0,0,1-.72,2.17,2.4,2.4,0,0,1-1.47.88c6.91,1.57,6.91,2.14,6.91,2.57a1,1,0,0,1-.53.78l-.74.44v.8l0-.06.47-.48a.4.4,0,0,1,.4-.09,45.52,45.52,0,0,1,7.19,3.25,74.15,74.15,0,0,0,2.18-7.12l-.12-.12a.37.37,0,0,1-.05-.47,51.09,51.09,0,0,0,4.11-7.42,39.53,39.53,0,0,0,1.91-5.15,25.37,25.37,0,0,0,1-4.86.39.39,0,0,1,.18-.28.41.41,0,0,1,.34,0c2.86,1.21,4.88,2.12,6,2.72,1.55.84,1.86,1.24,1.86,1.6s-.48.61-.66.67l-.84.28a51.42,51.42,0,0,1-5.19,6.8A40.6,40.6,0,0,1,99.37,25a23.33,23.33,0,0,1,4.39,1.81c-.05-.38-.1-.74-.16-1.09a.37.37,0,0,1,.45-.43c2.83.64,4.82,1.15,5.92,1.52,1.38.47,1.9.82,1.9,1.28a1,1,0,0,1-.53.73l-.69.48V41.8c.07,4.34.21,8.53.42,12.43a.31.31,0,0,1,0,.19,3.83,3.83,0,0,1-2.1,1.45,8.81,8.81,0,0,1-3.27.67c-1,0-1.59-.53-1.59-1.44l.22-1.13V53.3H86.59v1.75c0,.33-.27.64-.9,1a7.5,7.5,0,0,1-1.84.75c-1.35.38-2.75.48-3.46-.09a1.29,1.29,0,0,1-.54-1c.14-1.86.26-3.7.34-5.47s.15-4.08.19-6.83V36.66a68.65,68.65,0,0,0-.69-10.81.35.35,0,0,1,.11-.32,3.66,3.66,0,0,1-1.37-.84.4.4,0,0,1-.12-.29,12,12,0,0,0-.56-3.77,24.19,24.19,0,0,0-.86-2.35V42.75c.07,4.35.21,8.53.42,12.44a.33.33,0,0,1,0,.19,4,4,0,0,1-2.07,1.47A8.16,8.16,0,0,1,72,57.54ZM70.61,7.68a73.76,73.76,0,0,1,.61,10.37V42.33c0,3.18-.11,5.78-.22,7.73s-.23,4-.37,6.07c0,.08,0,.23.3.42a1.92,1.92,0,0,0,1.08.24,7.45,7.45,0,0,0,2.9-.63,3.91,3.91,0,0,0,1.65-1c-.21-3.89-.35-8-.42-12.36h0V16.62a.34.34,0,0,1,0-.1.41.41,0,0,1,0-.11V10.79a.38.38,0,0,1,.18-.32l1-.58.21-.15a4,4,0,0,0-1.38-.63C75.08,8.77,73.23,8.29,70.61,7.68Zm9.91,18.6a73.81,73.81,0,0,1,.61,10.38v6.73c0,2.76-.1,5.06-.19,6.85s-.2,3.63-.34,5.47a.52.52,0,0,0,.26.42,1.4,1.4,0,0,0,.9.24,6.82,6.82,0,0,0,1.89-.28,7.16,7.16,0,0,0,1.66-.67,1.69,1.69,0,0,0,.54-.42V52.93a.38.38,0,0,1,.37-.38h18.45a.38.38,0,0,1,.37.38V54l-.22,1.13c0,.34.15.62.85.62a8.11,8.11,0,0,0,3-.61,3.75,3.75,0,0,0,1.67-1c-.21-3.88-.35-8-.42-12.36V29.13a.38.38,0,0,1,.16-.31l.85-.58.14-.11a5.57,5.57,0,0,0-1.32-.58c-1-.34-2.79-.8-5.31-1.38A72.32,72.32,0,0,1,105,36.55V51.39a.38.38,0,0,1-.37.38H86.21a.38.38,0,0,1-.37-.38V49.85a.38.38,0,0,1,.16-.31,39,39,0,0,0,9.45-9.29.32.32,0,0,1,.31-.15.37.37,0,0,1,.31.17,26.24,26.24,0,0,1,3.07,5.85,3,3,0,0,0,1.65.5,1.76,1.76,0,0,0,1.43-.68A3,3,0,0,0,102.8,44a7.91,7.91,0,0,0-1.07-3.61,15.57,15.57,0,0,0-3.31-4.06.37.37,0,0,1-.08-.46,83.84,83.84,0,0,0,3.85-7.76.41.41,0,0,1,.23-.2l1-.32.15-.07a24.37,24.37,0,0,0-5.08-2,.37.37,0,0,1-.25-.3.38.38,0,0,1,.15-.36,39.11,39.11,0,0,0,6.54-5.91,50.32,50.32,0,0,0,5.18-6.81.45.45,0,0,1,.2-.16l1-.31.07,0a8.47,8.47,0,0,0-1.38-.87c-1-.56-2.87-1.39-5.47-2.49a28.72,28.72,0,0,1-1,4.5,40.93,40.93,0,0,1-2,5.24,53.18,53.18,0,0,1-4,7.27l0,0a.35.35,0,0,1,.1.36,75.19,75.19,0,0,1-2.39,7.83.36.36,0,0,1-.23.22.36.36,0,0,1-.32,0,43.17,43.17,0,0,0-7.23-3.33l0,0a54.6,54.6,0,0,1,6.1,6.52.37.37,0,0,1,0,.39,47.26,47.26,0,0,1-7.1,11.48.39.39,0,0,1-.42.11.37.37,0,0,1-.24-.35V29.18a.38.38,0,0,1,.18-.32l.9-.53.15-.12C86.79,28,85.59,27.42,80.52,26.28ZM86.59,51h17.69V36.55c0-3.22-.12-6-.36-8.38l-.28.14-.83.28c-1.23,2.79-2.47,5.28-3.67,7.41a15.74,15.74,0,0,1,3.25,4.06,8.59,8.59,0,0,1,1.16,4,3.69,3.69,0,0,1-.75,2.39,2.49,2.49,0,0,1-2,1,3.69,3.69,0,0,1-2.18-.71.34.34,0,0,1-.14-.19,23.8,23.8,0,0,0-2.74-5.34,39.7,39.7,0,0,1-9.14,8.92Zm0-20.41V47.49a47.4,47.4,0,0,0,6.24-10.3,51.6,51.6,0,0,0-6.17-6.5Zm-7.53-6.36a1.82,1.82,0,0,0,2.78,0,2.57,2.57,0,0,0,.55-1.7,5,5,0,0,0-1.29-3.08,11.54,11.54,0,0,0-4-2.92l-.11.06a23.23,23.23,0,0,1,1.52,3.79A12.38,12.38,0,0,1,79.06,24.25ZM65.65,31.68a2.15,2.15,0,0,1-1.9-1,2.72,2.72,0,0,1-.44-1.48,3.66,3.66,0,0,1,1.34-2.72,12.35,12.35,0,0,0,1.75-4A15.08,15.08,0,0,0,67,17.13a.36.36,0,0,1,.11-.29.34.34,0,0,1,.29-.11l.85.05a.38.38,0,0,1,.33.25,23.23,23.23,0,0,1,1.29,7.33,10.65,10.65,0,0,1-1.33,5.71,3.7,3.7,0,0,1-1.31,1.19A3.2,3.2,0,0,1,65.65,31.68Zm2.1-14.18a16.23,16.23,0,0,1-.63,5.19A12.85,12.85,0,0,1,65.2,27a3,3,0,0,0-1.14,2.21,1.94,1.94,0,0,0,.32,1.07,1.41,1.41,0,0,0,1.27.62,2.5,2.5,0,0,0,1.2-.33,3,3,0,0,0,1-.94,9.92,9.92,0,0,0,1.21-5.3,22.35,22.35,0,0,0-1.17-6.85Zm19.63,5a3.93,3.93,0,0,1-2.53-1.1.37.37,0,0,1-.12-.24,22.73,22.73,0,0,0-1.41-5.63,40.77,40.77,0,0,0-2.68-5.73.37.37,0,0,1,0-.29.39.39,0,0,1,.19-.23L81.33,9a.4.4,0,0,1,.32,0,17.15,17.15,0,0,1,6.6,4.56,8.27,8.27,0,0,1,2.15,5.16,4.21,4.21,0,0,1-.82,2.67A2.68,2.68,0,0,1,87.38,22.51Zm-1.92-1.57C86.83,22.07,88.17,22,89,21a3.5,3.5,0,0,0,.66-2.21,7.57,7.57,0,0,0-2-4.69,16.24,16.24,0,0,0-6.16-4.27h0A43,43,0,0,1,84,15.27,23.5,23.5,0,0,1,85.46,20.94Zm10.24.62a3.77,3.77,0,0,1-2.65-1.28.33.33,0,0,1-.11-.25C92.8,17,91.63,13,89.47,8.14a.39.39,0,0,1,0-.3.35.35,0,0,1,.21-.2l.53-.22a.37.37,0,0,1,.31,0,17.57,17.57,0,0,1,6.2,4.85,9,9,0,0,1,2,5.23,4.65,4.65,0,0,1-.84,2.85A2.64,2.64,0,0,1,95.7,21.56Zm-2-1.71c1.29,1.22,2.68,1.31,3.6.07a3.92,3.92,0,0,0,.69-2.4,8.16,8.16,0,0,0-1.86-4.78,16.66,16.66,0,0,0-5.78-4.56h0C92.38,12.85,93.51,16.77,93.68,19.85Z"/><path class="cls-4" d="M167.89,44.08H155.54a16,16,0,0,0,5.06,3.79,35.27,35.27,0,0,0,8.4,2.89v.68a6.19,6.19,0,0,0-3.45,1.86,6.34,6.34,0,0,0-1.16,4,17,17,0,0,1-6.52-5.67,27.41,27.41,0,0,1-3.66-7.58h-1.32a17.13,17.13,0,0,1-6.15,7.81q-4.4,3.21-12.88,5.38l-.48-.79a30.31,30.31,0,0,0,9.38-5.43,16.47,16.47,0,0,0,4.56-7h-3.65a37.19,37.19,0,0,0-6.68.74l-1.33-2.65c1.94.21,4.3.35,7.05.42h5.09a41.9,41.9,0,0,0,.74-5.46h-3.18a27.08,27.08,0,0,0-5.62.75l-1.32-2.71c1.91.21,4.2.36,6.89.43h3.28c.07-1.13.11-2.9.11-5.3h-3.55a34.43,34.43,0,0,0-6.47.74l-.85-1.7v.16c-.84.67-2.7,2-5.56,4V50.23a11.14,11.14,0,0,1-.48,3.63,4.09,4.09,0,0,1-2,2.19,11.44,11.44,0,0,1-4.34,1.17,8.86,8.86,0,0,0-1-4.13,4,4,0,0,0-1.35-1.2,7.85,7.85,0,0,0-2.25-.71v-.74c2.72.21,4.34.32,4.87.32a1.14,1.14,0,0,0,.77-.22.87.87,0,0,0,.24-.69V37.08l-2.65,1.64a2,2,0,0,1-1.32,1.49l-2.34-7,4.46-1c.38-.08,1-.22,1.85-.43V21.08H124.9a9.39,9.39,0,0,0-3.28.74l-1.38-2.65a35.53,35.53,0,0,0,4.45.42h2.12V18a69.4,69.4,0,0,0-.69-10.87q4.24,1,5.86,1.57c1.08.37,1.61.68,1.61.92s-.14.31-.42.48l-.9.58v9l2.44-4.4q2,2.34,3.39,4.08h7.47v-.95a69.4,69.4,0,0,0-.69-10.87q6.47,1.59,6.47,2.34c0,.14-.09.26-.27.37l-.63.42v8.69h2.6v-.9a69.17,69.17,0,0,0-.69-10.86c4.38,1.06,6.57,1.83,6.57,2.33,0,.14-.09.26-.27.37l-.69.42v8.64h3.82l1.11-1.59.56-.71c.23-.3.42-.52.56-.67a.61.61,0,0,1,.42-.21,4,4,0,0,1,1.43.8,20.28,20.28,0,0,1,2.07,1.69c.63.61.95,1,.95,1.28q-.21.84-1.32.84H158a30.77,30.77,0,0,1,3.85.85q1.08.38,1.08.69c0,.11-.16.25-.47.43l-1,.42a57.78,57.78,0,0,1-6,5.72h4.77L161.47,27c.14-.21.34-.5.59-.85a7,7,0,0,1,.61-.79.61.61,0,0,1,.45-.27,4.39,4.39,0,0,1,1.53.95,26.08,26.08,0,0,1,2.28,2c.71.71,1.06,1.18,1.06,1.43-.1.56-.56.85-1.38.85h-12c0,1.27-.07,3-.21,5.3h4.24l1.27-2c.18-.25.38-.55.61-.9a6.4,6.4,0,0,1,.59-.8.61.61,0,0,1,.45-.27,4.34,4.34,0,0,1,1.53,1,29.17,29.17,0,0,1,2.31,2.12c.72.74,1.09,1.24,1.09,1.49q-.17.84-1.38.84H154.26a26.35,26.35,0,0,1-.95,5.46h7.53l1.37-2.12c.18-.28.4-.61.67-1s.47-.68.63-.88a.65.65,0,0,1,.45-.29,4.77,4.77,0,0,1,1.65,1.09,32,32,0,0,1,2.51,2.28q1.2,1.19,1.2,1.56C169.17,43.8,168.7,44.08,167.89,44.08ZM153.73,28.81Q155.44,23,156,20.7H143.4a10.71,10.71,0,0,1,4.77,2.15,4.05,4.05,0,0,1,1.54,2.94,2.86,2.86,0,0,1-.83,2.07,2.67,2.67,0,0,1-2,.85,3.77,3.77,0,0,1-2.28-1,12.37,12.37,0,0,0-.82-3.57,19,19,0,0,0-1.62-3.32l.27-.16h-3.82a1.43,1.43,0,0,1-1.06.38h-5.3V30.4L137.62,29l-.32-.58q2.92.32,7,.42Zm-14.65-15.5a19.5,19.5,0,0,0-1.35-3.84l.58-.21a12.18,12.18,0,0,1,4.61,2.94,5,5,0,0,1,1.49,3.26,3.07,3.07,0,0,1-.77,2.12,2.39,2.39,0,0,1-1.83.84,3.14,3.14,0,0,1-2.28-1.11A14.93,14.93,0,0,0,139.08,13.31Zm19.69,4.32a38.82,38.82,0,0,0,1.35-4.74,23.4,23.4,0,0,0,.61-4.32l3.76,1.69c1.91.64,2.87,1.13,2.87,1.49s-.2.37-.59.47l-1,.32a33.59,33.59,0,0,1-6.31,5.51Z"/><path class="cls-4" d="M164.39,57.7a.33.33,0,0,1-.17,0,17.28,17.28,0,0,1-6.66-5.79,27.87,27.87,0,0,1-3.63-7.42h-.79A17.61,17.61,0,0,1,147,52.2c-3,2.15-7.33,4-13,5.44a.38.38,0,0,1-.41-.17l-.48-.8a.34.34,0,0,1,0-.31.37.37,0,0,1,.21-.23,29.83,29.83,0,0,0,9.27-5.36,16.3,16.3,0,0,0,4.28-6.32h-3.12a37.57,37.57,0,0,0-6.61.74.38.38,0,0,1-.41-.2l-1.32-2.65a.37.37,0,0,1,.37-.54c1.93.21,4.29.35,7,.42h4.78a43.48,43.48,0,0,0,.63-4.71h-2.77a26.2,26.2,0,0,0-5.53.73.36.36,0,0,1-.42-.2l-1.33-2.7a.38.38,0,0,1,.38-.54c1.89.21,4.19.35,6.86.42h2.92c0-1,.08-2.58.08-4.55h-3.17a34.45,34.45,0,0,0-6.39.74.38.38,0,0,1-.41-.2L137.76,30c-.94.72-2.65,1.94-5.12,3.64V50.23a11.67,11.67,0,0,1-.49,3.75,4.56,4.56,0,0,1-2.13,2.4,11.81,11.81,0,0,1-4.49,1.21.41.41,0,0,1-.29-.08.41.41,0,0,1-.13-.27,8.58,8.58,0,0,0-.89-4A3.73,3.73,0,0,0,123,52.22a7.41,7.41,0,0,0-2.14-.67.38.38,0,0,1-.31-.37v-.74a.4.4,0,0,1,.12-.28.43.43,0,0,1,.29-.1c2.69.21,4.32.32,4.84.32.34,0,.47-.07.52-.12a.53.53,0,0,0,.12-.41V37.76l-2,1.21a2.3,2.3,0,0,1-1.53,1.6.38.38,0,0,1-.47-.24l-2.33-7a.32.32,0,0,1,0-.3.36.36,0,0,1,.24-.18l4.45-1c.36-.06.87-.18,1.57-.35v-10H124.9a8.94,8.94,0,0,0-3.14.72.39.39,0,0,1-.48-.18l-1.37-2.65a.37.37,0,0,1,.39-.54,35,35,0,0,0,4.41.42h1.73V18a68.65,68.65,0,0,0-.69-10.81.38.38,0,0,1,.46-.42c2.87.68,4.79,1.2,5.89,1.57,1.35.47,1.87.83,1.87,1.28s-.34.64-.6.8l-.73.47v7.3L134.38,15a.37.37,0,0,1,.29-.19A.39.39,0,0,1,135,15c1.29,1.49,2.4,2.82,3.29,3.95h6.92v-.58a68.56,68.56,0,0,0-.69-10.81.37.37,0,0,1,.12-.33.36.36,0,0,1,.34-.09c6.24,1.53,6.75,2.15,6.75,2.7a.78.78,0,0,1-.44.69l-.46.3V18.9h1.85v-.53A69.92,69.92,0,0,0,152,7.57a.37.37,0,0,1,.45-.43c6.34,1.54,6.86,2.15,6.86,2.7a.78.78,0,0,1-.44.69l-.51.31V18.9h3.25l1-1.43.56-.73a6.7,6.7,0,0,1,.59-.7,1,1,0,0,1,.69-.32c.23,0,.58.1,1.65.86a21.13,21.13,0,0,1,2.11,1.73c.75.71,1.07,1.17,1.07,1.55a1.52,1.52,0,0,1-1.7,1.22h-6l.38.12c.69.24,1.34.53,1.34,1,0,.34-.32.56-.67.75l-.91.41a59.15,59.15,0,0,1-5.24,5H160l1.16-1.69.59-.86a9.29,9.29,0,0,1,.64-.83,1,1,0,0,1,.73-.39c.21,0,.54.09,1.76,1a24.16,24.16,0,0,1,2.32,2c1,1,1.17,1.43,1.17,1.7-.11.59-.49,1.22-1.76,1.22H155c0,1.16-.08,2.66-.19,4.55h3.64l1.16-1.79c.18-.26.38-.55.61-.9a6.11,6.11,0,0,1,.62-.84,1,1,0,0,1,.73-.39c.21,0,.55.08,1.77,1.09.82.68,1.6,1.4,2.34,2.15,1.05,1.08,1.19,1.47,1.19,1.75-.11.59-.49,1.22-1.75,1.22H154.61a26.75,26.75,0,0,1-.81,4.71h6.83l1.27-1.95c.17-.28.4-.62.67-1s.49-.71.65-.9a1,1,0,0,1,.74-.44c.22,0,.56.1,1.88,1.18a33.07,33.07,0,0,1,2.55,2.3c1.14,1.15,1.3,1.56,1.3,1.83-.14.61-.56,1.22-1.8,1.22H156.38a17.07,17.07,0,0,0,4.39,3.08,34.09,34.09,0,0,0,8.31,2.86.38.38,0,0,1,.29.37v.68a.38.38,0,0,1-.29.37,5.82,5.82,0,0,0-3.24,1.73,6.09,6.09,0,0,0-1.08,3.79.38.38,0,0,1-.18.32A.41.41,0,0,1,164.39,57.7Zm-30.46-1,.11.18c5.45-1.42,9.64-3.18,12.48-5.25a16.85,16.85,0,0,0,6-7.65.37.37,0,0,1,.35-.24h1.32a.37.37,0,0,1,.36.27,27.1,27.1,0,0,0,3.61,7.48A16.59,16.59,0,0,0,164,56.72a5.42,5.42,0,0,1,4.58-5.57v-.1a34.49,34.49,0,0,1-8.2-2.85,16.25,16.25,0,0,1-5.17-3.89.35.35,0,0,1-.05-.39.38.38,0,0,1,.34-.22h12.35c.8,0,1-.31,1-.49a5,5,0,0,0-1.07-1.28,33.46,33.46,0,0,0-2.49-2.25,5.16,5.16,0,0,0-1.42-1l-.15.15c-.15.19-.36.47-.61.85l-.66,1-1.38,2.13a.39.39,0,0,1-.31.17h-7.53a.38.38,0,0,1-.3-.15.39.39,0,0,1-.06-.33,25.93,25.93,0,0,0,.94-5.38.38.38,0,0,1,.37-.35h10.82c.9,0,1-.38,1-.54a12.94,12.94,0,0,0-1-1.16A30.2,30.2,0,0,0,162.82,33a4.78,4.78,0,0,0-1.31-.92,1,1,0,0,0-.16.14,6.91,6.91,0,0,0-.54.75c-.24.36-.44.66-.62.91l-1.27,1.95a.34.34,0,0,1-.31.17h-4.24a.36.36,0,0,1-.27-.12.35.35,0,0,1-.1-.28c.14-2.25.21-4,.21-5.27a.38.38,0,0,1,.37-.38h12c.91,0,1-.38,1-.54a7.94,7.94,0,0,0-1-1.1,25.46,25.46,0,0,0-2.25-2,5.34,5.34,0,0,0-1.32-.88s0,0-.16.15a9.44,9.44,0,0,0-.58.76c-.24.35-.44.63-.57.84L160.51,29a.38.38,0,0,1-.31.16h-4.77a.37.37,0,0,1-.35-.25.36.36,0,0,1,.11-.41,61.61,61.61,0,0,0,6-5.69.27.27,0,0,1,.12-.09l1-.43.17-.1a3.92,3.92,0,0,0-.74-.31,30,30,0,0,0-3.79-.84.37.37,0,0,1-.31-.4.38.38,0,0,1,.37-.34h9.6c.66,0,.86-.25.94-.5a3.31,3.31,0,0,0-.83-1,18.6,18.6,0,0,0-2-1.67c-.93-.66-1.18-.72-1.22-.72s-.07,0-.15.1a5.41,5.41,0,0,0-.52.63l-.56.72-1.1,1.57a.38.38,0,0,1-.31.16H158a.38.38,0,0,1-.37-.38V10.63a.38.38,0,0,1,.18-.32l.69-.42.05,0c-.24-.21-1.27-.76-5.71-1.85a72.12,72.12,0,0,1,.61,10.36v.9a.38.38,0,0,1-.37.38h-2.6a.38.38,0,0,1-.38-.38V10.58a.39.39,0,0,1,.17-.31l.64-.43.06,0c-.23-.2-1.24-.75-5.6-1.85A73.76,73.76,0,0,1,146,18.32v.95a.38.38,0,0,1-.38.38H138.1a.39.39,0,0,1-.3-.14c-.82-1.05-1.84-2.28-3-3.67l-2.18,3.93a.38.38,0,0,1-.42.18.37.37,0,0,1-.29-.36v-9a.38.38,0,0,1,.18-.31l.9-.58.2-.15A4.81,4.81,0,0,0,131.86,9c-1-.34-2.77-.82-5.28-1.42A73.76,73.76,0,0,1,127.19,18v1.64a.38.38,0,0,1-.38.38h-2.12c-1.42-.06-2.68-.17-3.78-.32l.88,1.7a9.62,9.62,0,0,1,3.1-.65h1.92a.38.38,0,0,1,.38.38v10.7a.39.39,0,0,1-.29.37c-.86.21-1.48.35-1.88.42l-4,.92,2.07,6.21a1.69,1.69,0,0,0,.74-1.07.33.33,0,0,1,.16-.22l2.65-1.65a.38.38,0,0,1,.58.32V49.85a1.24,1.24,0,0,1-.37,1,1.45,1.45,0,0,1-1,.31c-.51,0-2-.1-4.5-.29v0a7.47,7.47,0,0,1,2.06.7,4.31,4.31,0,0,1,1.48,1.3,8.51,8.51,0,0,1,1,3.93,10.64,10.64,0,0,0,3.82-1.07,3.78,3.78,0,0,0,1.79-2,11,11,0,0,0,.45-3.5V33.48a.38.38,0,0,1,.17-.31c2.52-1.75,4.28-3,5.23-3.72l-4.92,1.32a.39.39,0,0,1-.48-.37V21.08a.38.38,0,0,1,.38-.38h5.3a1.07,1.07,0,0,0,.79-.26.39.39,0,0,1,.27-.11h3.82a.38.38,0,0,1,.36.27.36.36,0,0,1-.12.38A19.33,19.33,0,0,1,144.15,24a13,13,0,0,1,.83,3.52c1.5,1.11,2.75,1,3.64,0a2.49,2.49,0,0,0,.71-1.81,3.67,3.67,0,0,0-1.41-2.66,10.28,10.28,0,0,0-4.6-2.06.37.37,0,0,1,.08-.74H156a.36.36,0,0,1,.29.14.38.38,0,0,1,.08.32c-.36,1.55-1.11,4.29-2.24,8.13a.37.37,0,0,1-.36.27h-9.38c-2.43-.06-4.57-.18-6.38-.35a.47.47,0,0,1,0,.17.37.37,0,0,1,.17.16l.72,1.44a36.32,36.32,0,0,1,6.25-.69h3.56a.37.37,0,0,1,.37.38c0,2.4,0,4.19-.1,5.32a.37.37,0,0,1-.38.35h-3.28q-3.59-.09-6.26-.35l.9,1.82a26.6,26.6,0,0,1,5.4-.68h3.19a.36.36,0,0,1,.28.12.42.42,0,0,1,.1.28,44.44,44.44,0,0,1-.75,5.51.39.39,0,0,1-.37.3h-5.09q-3.68-.09-6.41-.36l.89,1.79a38.59,38.59,0,0,1,6.47-.7h3.66a.37.37,0,0,1,.3.16.38.38,0,0,1,.06.34A17,17,0,0,1,143,51.32,30.13,30.13,0,0,1,133.93,56.66Zm-1.29-35.21v8.47l4.43-1.19-.09-.16a.39.39,0,0,1,0-.39.41.41,0,0,1,.36-.16c1.92.21,4.28.35,7,.42h.58c-.18-.12-.37-.25-.55-.39a.39.39,0,0,1-.15-.27,11.66,11.66,0,0,0-.79-3.47,19.05,19.05,0,0,0-1.58-3.23h-3.1a1.85,1.85,0,0,1-1.2.37Zm13.27-.37a8.42,8.42,0,0,1,2.51,1.49,4.4,4.4,0,0,1,1.66,3.22,3.23,3.23,0,0,1-.93,2.33,3.49,3.49,0,0,1-.35.32h4.65c1-3.34,1.66-5.81,2-7.36Zm-4.1-2.28a3.48,3.48,0,0,1-2.55-1.23.34.34,0,0,1-.1-.27,15.46,15.46,0,0,0-.44-3.9,19,19,0,0,0-1.33-3.77.37.37,0,0,1,.21-.51l.58-.22a.36.36,0,0,1,.27,0,12.61,12.61,0,0,1,4.75,3,5.36,5.36,0,0,1,1.58,3.51,3.42,3.42,0,0,1-.86,2.37A2.79,2.79,0,0,1,141.81,18.8Zm-1.9-1.64c1.15,1.13,2.52,1.2,3.45.17a2.67,2.67,0,0,0,.67-1.87,4.65,4.65,0,0,0-1.39-3,11.74,11.74,0,0,0-4.34-2.79l-.06,0a19.13,19.13,0,0,1,1.2,3.54h0A15.79,15.79,0,0,1,139.91,17.16Zm19.55,1.27a.36.36,0,0,1-.2-.06l-.69-.42a.38.38,0,0,1-.15-.45,38.52,38.52,0,0,0,1.33-4.69,23.63,23.63,0,0,0,.61-4.25.38.38,0,0,1,.17-.31.34.34,0,0,1,.35,0l3.77,1.69c2.56.85,3.08,1.33,3.08,1.83,0,.27-.15.64-.86.84l-.9.28a34,34,0,0,1-6.31,5.5A.36.36,0,0,1,159.46,18.43Zm-.24-1,.23.14a34.68,34.68,0,0,0,6-5.32.42.42,0,0,1,.16-.11l1-.31c.28-.08.33-.15.33-.15h0a10.6,10.6,0,0,0-2.62-1.1l-3.29-1.49a27,27,0,0,1-.59,3.84A40.3,40.3,0,0,1,159.22,17.47Z"/><path class="cls-4" d="M180.76,27.86a12.84,12.84,0,0,0-1.19-4.08,15.75,15.75,0,0,0-2.3-3.66l.53-.37a12.27,12.27,0,0,1,5.93,2.44,4.81,4.81,0,0,1,1.91,3.55,3.07,3.07,0,0,1-.77,2.09,2.45,2.45,0,0,1-1.93.88A3.52,3.52,0,0,1,180.76,27.86ZM185.67,45q.35,1.11.39,1.38a26.67,26.67,0,0,1,.83,2.83,14.36,14.36,0,0,1,.29,3.05,5.43,5.43,0,0,1-1.06,3.52,3.56,3.56,0,0,1-2.92,1.3,2.11,2.11,0,0,1-1.53-.69,3.93,3.93,0,0,1-1-2.06,36.06,36.06,0,0,0,.58-6.42,16.58,16.58,0,0,0-.26-3.26,2.92,2.92,0,0,0-.74-1.67,5.22,5.22,0,0,0-2.6-.79V41.06h2.23a1.5,1.5,0,0,0,.77-.16,3.44,3.44,0,0,0,.66-1q.74-1.42,2.57-6.12t6.49-17l.85.21q-1.22,4.45-2.86,11t-2.49,10.14a25,25,0,0,0-.59,4.56A7.52,7.52,0,0,0,185.67,45Zm-1.41-28.52a15,15,0,0,0-1.4-4.16,29.33,29.33,0,0,0-2.47-4.1l.37-.32a13.77,13.77,0,0,1,6.47,2.65,5.06,5.06,0,0,1,2.07,3.76,3.07,3.07,0,0,1-.82,2.15,2.64,2.64,0,0,1-2,.87A3.81,3.81,0,0,1,184.26,16.46Zm40.28,34.3a11.49,11.49,0,0,1,1.33,4.39,1.52,1.52,0,0,1-.53,1.33,3.08,3.08,0,0,1-1.86.64,5.61,5.61,0,0,1-3.2-1.17,10,10,0,0,1-2.68-2.7,34.68,34.68,0,0,1-2.92-5,33,33,0,0,1-11.34,8.8l-.47-.58a35.39,35.39,0,0,0,5.72-5.78,2.56,2.56,0,0,1-1.59-.63,9.71,9.71,0,0,0-1-2.84,16.47,16.47,0,0,0-1.78-2.78,17.77,17.77,0,0,1-3.1,6.73A18.94,18.94,0,0,1,195,56.27l-.58-.85a16.24,16.24,0,0,0,4.66-6.15A27.62,27.62,0,0,0,201,41c.1-1.06.16-2.31.16-3.76s-.06-3.23-.16-4.9a39.71,39.71,0,0,0-.43-4.06q6,.48,6.05,1.17c0,.14-.13.3-.38.47l-.79.53q-.1,6.59-.42,9.54c.56-1.16,1.16-2.51,1.8-4a33,33,0,0,0,1.32-3.61l2.12,1.33c-.21-1.24-.44-2.81-.69-4.72l-.16-1.33H196.93v2a67.65,67.65,0,0,1-.74,10.82l.05-.06c1.45-1.16,2.23-3.55,2.33-7.15h.85a21.71,21.71,0,0,1,.74,5.25,7.14,7.14,0,0,1-.87,3.94,2.47,2.47,0,0,1-2,1.3,1.54,1.54,0,0,1-.88-.26,1.78,1.78,0,0,1-.61-.74,26.62,26.62,0,0,1-8.11,14.62L187,56.8a33.9,33.9,0,0,0,4.08-12.06,106.68,106.68,0,0,0,1-15.19v-7.2a49.79,49.79,0,0,0-.47-7.42l6.2,3.18H208.7q-.22-4.66-.22-10.76a47.86,47.86,0,0,1,5.3,1.38c1,.35,1.49.65,1.49.9s-.14.35-.43.53l-.9.63v7.32h3.24l2.22-2.92-.16-.1a9.58,9.58,0,0,0-1.16-3,12.32,12.32,0,0,0-2-2.65l.47-.38a10.5,10.5,0,0,1,5,1.65,3.43,3.43,0,0,1,1.6,2.7,2.39,2.39,0,0,1-.4,1.3,2.31,2.31,0,0,1-1,.87,40.76,40.76,0,0,1,3.76,3.24c-.14.53-.62.79-1.43.79H214a80.45,80.45,0,0,0,2.06,17,13.75,13.75,0,0,0,.43-1.48,31.65,31.65,0,0,0,1.11-5.43,32.52,32.52,0,0,0,.26-5.38q6.94,2.49,6.95,3.23c0,.11-.16.23-.48.37l-1,.32A53.12,53.12,0,0,1,218.18,43a22.85,22.85,0,0,0,2.92,4.87q.36.69.69.69c.21,0,.42-.24.63-.74a55.92,55.92,0,0,0,2.65-6.2l.59.11ZM206.26,22.29c1,.85,1.94,1.72,2.86,2.6-.11-1.24-.23-3-.37-5.3H196.93v6.47h6.68Zm6.68,21.79a51.3,51.3,0,0,1-2.18-7.85q-2.49,2.13-5.19,4.08l-.58-.37c-.11,1.13-.27,2.23-.48,3.29A11.12,11.12,0,0,1,209,45.16a4.6,4.6,0,0,1,1.8,2.63C211.65,46.37,212.37,45.14,212.94,44.08Z"/><path class="cls-4" d="M187.65,57.65a.33.33,0,0,1-.22-.08l-.64-.47a.39.39,0,0,1-.1-.49,33.46,33.46,0,0,0,4-11.92,107.63,107.63,0,0,0,1-15.14v-7.2c0-1.76-.06-3.35-.18-4.78-.78,2.88-1.7,6.43-2.74,10.57-1.09,4.32-1.92,7.74-2.49,10.14a24.52,24.52,0,0,0-.57,4.47,7,7,0,0,0,.33,2.12h0c.31,1,.38,1.29.4,1.41a24,24,0,0,1,.82,2.83,14.45,14.45,0,0,1,.3,3.13A5.8,5.8,0,0,1,186.41,56a4,4,0,0,1-3.21,1.44,2.51,2.51,0,0,1-1.8-.8,4.27,4.27,0,0,1-1.06-2.26.33.33,0,0,1,0-.14,35.3,35.3,0,0,0,.58-6.35,16.48,16.48,0,0,0-.26-3.18,2.52,2.52,0,0,0-.6-1.45,4.93,4.93,0,0,0-2.39-.72.37.37,0,0,1-.35-.37V41.06a.37.37,0,0,1,.37-.38h2.23a1.28,1.28,0,0,0,.56-.09,2.91,2.91,0,0,0,.54-.82c.48-.94,1.34-3,2.55-6.08s3.41-8.86,6.49-17a.38.38,0,0,1,.44-.23l.85.21.08,0c-.06-.61-.14-1.18-.22-1.72a.37.37,0,0,1,.15-.37.39.39,0,0,1,.39,0l6.12,3.14H208.3c-.13-3-.19-6.49-.19-10.38a.37.37,0,0,1,.14-.29.36.36,0,0,1,.31-.08,52.72,52.72,0,0,1,5.35,1.39c1.25.45,1.73.8,1.73,1.26a1,1,0,0,1-.6.84l-.72.52v6.74H217l1.91-2.5,0-.08a9.27,9.27,0,0,0-1.12-2.9,11.83,11.83,0,0,0-1.9-2.57.36.36,0,0,1-.11-.29.38.38,0,0,1,.14-.27l.48-.37a.4.4,0,0,1,.28-.08,10.77,10.77,0,0,1,5.16,1.72,3.77,3.77,0,0,1,1.74,3,2.65,2.65,0,0,1-.46,1.5,2.89,2.89,0,0,1-.63.71,38.5,38.5,0,0,1,3.36,2.93.35.35,0,0,1,.1.36c-.13.49-.55,1.08-1.79,1.08h-9.74a83,83,0,0,0,1.72,15.15s0,0,0-.07a32,32,0,0,0,1.11-5.41,32.82,32.82,0,0,0,.26-5.31.36.36,0,0,1,.15-.32A.34.34,0,0,1,218,24c7.19,2.58,7.19,3.16,7.19,3.58s-.35.56-.7.72l-.83.26A54,54,0,0,1,218.6,43a22.47,22.47,0,0,0,2.79,4.63,1.38,1.38,0,0,0,.4.54,2,2,0,0,0,.29-.51,57.05,57.05,0,0,0,2.64-6.18.37.37,0,0,1,.42-.24l.58.11a.37.37,0,0,1,.31.41l-1.1,8.91a11.64,11.64,0,0,1,1.31,4.45,1.86,1.86,0,0,1-.69,1.64c-1.53,1.14-3.51.84-5.49-.53a10.26,10.26,0,0,1-2.77-2.81A34.75,34.75,0,0,1,214.6,49a33.81,33.81,0,0,1-11.1,8.45.37.37,0,0,1-.45-.1l-.47-.58a.37.37,0,0,1-.09-.28.35.35,0,0,1,.14-.25A35.69,35.69,0,0,0,207.9,51a3.14,3.14,0,0,1-1.13-.61.33.33,0,0,1-.14-.23,9.34,9.34,0,0,0-.94-2.73,17,17,0,0,0-1.28-2.1,17.87,17.87,0,0,1-3,6.1,19.44,19.44,0,0,1-6.29,5.2.38.38,0,0,1-.49-.12l-.58-.85a.37.37,0,0,1,.07-.5,16.06,16.06,0,0,0,4.56-6,27.35,27.35,0,0,0,1.87-8.21,36.64,36.64,0,0,0,.16-3.73c0-1.58-.05-3.22-.16-4.88a36.53,36.53,0,0,0-.42-4,.36.36,0,0,1,.1-.31h-3v1.58a73.57,73.57,0,0,1-.56,9.68c.89-1.26,1.38-3.3,1.46-6.08a.38.38,0,0,1,.37-.37h.85a.39.39,0,0,1,.37.29,22.9,22.9,0,0,1,.75,5.34,7.39,7.39,0,0,1-.94,4.15A2.82,2.82,0,0,1,197.25,44a1.92,1.92,0,0,1-1.09-.33l-.22-.17a26.82,26.82,0,0,1-8,14A.35.35,0,0,1,187.65,57.65Zm-.14-.95.12.09a26.58,26.58,0,0,0,7.77-14.22.37.37,0,0,1,.33-.3.41.41,0,0,1,.38.22,1.39,1.39,0,0,0,.47.59,1.2,1.2,0,0,0,.67.2A2.12,2.12,0,0,0,199,42.15a6.92,6.92,0,0,0,.81-3.74,21.25,21.25,0,0,0-.66-4.88h-.2c-.15,3.51-1,5.88-2.45,7.08a.42.42,0,0,1-.45.08.36.36,0,0,1-.21-.38,67.14,67.14,0,0,0,.73-10.76v-2a.38.38,0,0,1,.38-.37h12.45a.39.39,0,0,1,.38.33l.16,1.32c.24,1.87.47,3.45.68,4.7a.37.37,0,0,1-.16.38.38.38,0,0,1-.41,0l-1.7-1.06c-.26.84-.67,1.9-1.2,3.17s-1.14,2.65-1.66,3.75l.08,0c1.71-1.24,3.38-2.56,5-3.91a.38.38,0,0,1,.37-.07.36.36,0,0,1,.24.28A51.66,51.66,0,0,0,213.29,44a.39.39,0,0,1,0,.3c-.57,1.07-1.31,2.32-2.19,3.74a.4.4,0,0,1-.39.17.39.39,0,0,1-.3-.3,4.23,4.23,0,0,0-1.67-2.4,10.72,10.72,0,0,0-4.3-1.87.37.37,0,0,1-.28-.43,30.62,30.62,0,0,0,.47-3.25h0c.21-1.95.35-5.15.42-9.5a.41.41,0,0,1,.17-.31l.8-.53a.94.94,0,0,0,.14-.12c-.3-.15-1.37-.48-5.16-.8.14,1,.26,2.19.35,3.62.11,1.68.16,3.34.16,4.93s-.05,2.73-.16,3.8a28.2,28.2,0,0,1-1.93,8.43,16.66,16.66,0,0,1-4.51,6.07l.19.28A18.27,18.27,0,0,0,200.84,51a17.57,17.57,0,0,0,3-6.59.37.37,0,0,1,.28-.28.38.38,0,0,1,.38.14,17.15,17.15,0,0,1,1.81,2.84,9.94,9.94,0,0,1,1,2.8,2.14,2.14,0,0,0,1.25.47.37.37,0,0,1,.3.6,35.73,35.73,0,0,1-5.5,5.6l.06.07a33.22,33.22,0,0,0,11-8.57.39.39,0,0,1,.33-.14.38.38,0,0,1,.29.21A34.81,34.81,0,0,0,217.91,53a9.41,9.41,0,0,0,2.58,2.61c1.7,1.19,3.32,1.52,4.62.54a1.17,1.17,0,0,0,.38-1,11.32,11.32,0,0,0-1.29-4.24.34.34,0,0,1,0-.2l1-8.35A52.44,52.44,0,0,1,222.75,48c-.16.39-.46,1-1,1s-.82-.51-1-.89a23.1,23.1,0,0,1-2.93-4.9.38.38,0,0,1,0-.33A53.28,53.28,0,0,0,223,28.15a.36.36,0,0,1,.25-.28l1-.32.15-.07c-.27-.21-1.4-.92-6.11-2.63a34.84,34.84,0,0,1-.29,4.88,31.31,31.31,0,0,1-1.13,5.5,12.91,12.91,0,0,1-.42,1.49.36.36,0,0,1-.37.26.37.37,0,0,1-.35-.29,82,82,0,0,1-2.08-17.09.39.39,0,0,1,.11-.27.37.37,0,0,1,.27-.11h10.12c.63,0,.88-.18,1-.33a41.85,41.85,0,0,0-3.55-3,.38.38,0,0,1-.15-.34.4.4,0,0,1,.22-.3,1.87,1.87,0,0,0,.82-.74,1.9,1.9,0,0,0,.34-1.09,3,3,0,0,0-1.44-2.4,9.93,9.93,0,0,0-4.65-1.55l0,0a12.83,12.83,0,0,1,1.73,2.42,10.43,10.43,0,0,1,1.18,3l0,0a.38.38,0,0,1,.16.25.38.38,0,0,1-.07.29l-2.23,2.92a.37.37,0,0,1-.29.14h-3.24a.38.38,0,0,1-.37-.37V10.79a.37.37,0,0,1,.16-.3l.9-.64a.79.79,0,0,0,.26-.22,5.3,5.3,0,0,0-1.23-.55,47.91,47.91,0,0,0-4.8-1.26c0,3.85.07,7.31.21,10.27a.42.42,0,0,1-.1.28.39.39,0,0,1-.27.11H197.78a.33.33,0,0,1-.17,0l-5.56-2.85a52.53,52.53,0,0,1,.38,6.76v7.2a107.31,107.31,0,0,1-1,15.24A34.31,34.31,0,0,1,187.51,56.7Zm-6.42-2.4a3.56,3.56,0,0,0,.84,1.81,1.76,1.76,0,0,0,1.27.58,3.19,3.19,0,0,0,2.63-1.16,5.14,5.14,0,0,0,1-3.29,13.69,13.69,0,0,0-.28-3,26.42,26.42,0,0,0-.81-2.79c0-.16-.12-.48-.4-1.39a7.87,7.87,0,0,1-.36-2.34,25.51,25.51,0,0,1,.59-4.63C186.11,35.7,187,32.28,188,28c1.05-4.16,2-7.74,2.77-10.63l-.16,0c-3,8-5.16,13.57-6.37,16.68s-2.09,5.19-2.59,6.16a2.87,2.87,0,0,1-.79,1.09,1.72,1.72,0,0,1-1,.22h-1.85v.4a5.27,5.27,0,0,1,2.43.82,3.21,3.21,0,0,1,.9,1.91,17.26,17.26,0,0,1,.27,3.33A36,36,0,0,1,181.09,54.3ZM204.94,43a11.27,11.27,0,0,1,4.26,1.92,5.7,5.7,0,0,1,1.67,2c.65-1.06,1.2-2,1.66-2.85a51.58,51.58,0,0,1-2-7.12c-1.52,1.27-3.11,2.51-4.73,3.69a.38.38,0,0,1-.42,0l-.07,0C205.21,41.39,205.09,42.18,204.94,43Zm.84-12.34c-.05,3-.13,5.41-.25,7.27.3-.66.6-1.37.91-2.11a31,31,0,0,0,1.31-3.56A.41.41,0,0,1,208,32a.38.38,0,0,1,.33,0l1.42.89c-.18-1.11-.37-2.42-.56-3.91l-.12-1h-7.17c4.66.43,5.07.91,5.07,1.43a1,1,0,0,1-.53.78Zm-22.84-1.53a3.81,3.81,0,0,1-2.41-.93.35.35,0,0,1-.14-.25,12.63,12.63,0,0,0-1.16-4A14.8,14.8,0,0,0,177,20.37a.4.4,0,0,1-.09-.3.43.43,0,0,1,.16-.26l.53-.37a.42.42,0,0,1,.29-.06A12.64,12.64,0,0,1,184,21.91a5.19,5.19,0,0,1,2,3.83,3.41,3.41,0,0,1-.87,2.34A2.81,2.81,0,0,1,182.94,29.08Zm-1.82-1.42a3,3,0,0,0,1.82.67,2.08,2.08,0,0,0,1.65-.74,2.73,2.73,0,0,0,.68-1.85,4.46,4.46,0,0,0-1.79-3.27,11.7,11.7,0,0,0-5.6-2.32l-.06,0a16.94,16.94,0,0,1,2.09,3.43A13.81,13.81,0,0,1,181.12,27.66Zm22.49-1.23h-6.68a.38.38,0,0,1-.38-.37V19.59a.37.37,0,0,1,.38-.37h11.82a.37.37,0,0,1,.37.35c.14,2.25.27,4,.37,5.29a.37.37,0,0,1-.63.3c-.81-.78-1.66-1.56-2.53-2.31l-2.42,3.42A.37.37,0,0,1,203.61,26.43Zm-6.31-.75h6.11l2.54-3.6a.37.37,0,0,1,.26-.16.39.39,0,0,1,.29.09c.74.63,1.46,1.28,2.17,1.94-.09-1.08-.18-2.41-.27-4H197.3Zm-10.81-8a4.21,4.21,0,0,1-2.45-.92.41.41,0,0,1-.15-.25,14.25,14.25,0,0,0-1.37-4,28.57,28.57,0,0,0-2.43-4.05.38.38,0,0,1,.06-.51l.37-.32a.4.4,0,0,1,.32-.08,14.33,14.33,0,0,1,6.64,2.74,5.46,5.46,0,0,1,2.19,4,3.4,3.4,0,0,1-.92,2.4A3,3,0,0,1,186.49,17.69Zm-1.88-1.44c1.42,1,2.7.88,3.59-.07a2.59,2.59,0,0,0,.72-1.89A4.73,4.73,0,0,0,187,10.81a13.2,13.2,0,0,0-6.06-2.52,29.28,29.28,0,0,1,2.27,3.85A15.61,15.61,0,0,1,184.61,16.25Z"/><path class="cls-2" d="M91.77,83.09c1,1.17,1.58,2,1.58,2.36A.62.62,0,0,1,93,86a9.29,9.29,0,0,1-2,.9c-.52.2-1,.41-1.5.64l-2.15,1.2c-3,1.66-5.21,2.82-6.69,3.48l-.13.25c-.29.89-.79,2.26-1.5,4.12a42.33,42.33,0,0,1-5.8,10.13,25,25,0,0,1-9.18,7.51,1.42,1.42,0,0,1-.64.25.19.19,0,0,1-.21-.21c0-.09.18-.29.55-.6a31.5,31.5,0,0,0,6.7-7.81,43.12,43.12,0,0,0,4.11-8.54,20.81,20.81,0,0,0,1.38-6,2.48,2.48,0,0,0-.86-2,5.26,5.26,0,0,0-2.19-1.1.27.27,0,0,1-.21-.25q0-.3,1.11-.63A8.12,8.12,0,0,1,76,87.08a7.49,7.49,0,0,1,3.45.88,4.37,4.37,0,0,1,2.17,2,26.19,26.19,0,0,0,4.33-5,2.7,2.7,0,0,0,.56-1.29c0-.37-.36-.56-1.07-.56a21.38,21.38,0,0,0-3.71.45c-1.59.3-3.26.7-5,1.18a41.13,41.13,0,0,0-4.85,1.72c-1.09.46-1.93.78-2.53,1a5.67,5.67,0,0,1-1.72.28,3.5,3.5,0,0,1-1.71-.58,7.79,7.79,0,0,1-1.89-1.58,7.33,7.33,0,0,1-1.37-2.21,2.35,2.35,0,0,1-.17-.82c0-.37.1-.56.3-.56a2.12,2.12,0,0,1,.68.28,5.23,5.23,0,0,0,.95.41,9,9,0,0,0,3,.39A25.06,25.06,0,0,0,71,82.75c1.86-.23,4.36-.59,7.49-1.1s5.14-.86,6-1.09a10.25,10.25,0,0,0,1.24-.43,5.66,5.66,0,0,1,1.76-.47,1.89,1.89,0,0,1,1,.51A20.85,20.85,0,0,1,91.77,83.09Z"/><path class="cls-2" d="M63.45,114.83a.56.56,0,0,1-.59-.59c0-.2.11-.39.69-.89a31.32,31.32,0,0,0,6.62-7.71,43.84,43.84,0,0,0,4.08-8.47,20.62,20.62,0,0,0,1.35-5.84,2.11,2.11,0,0,0-.73-1.67,4.85,4.85,0,0,0-2-1,.68.68,0,0,1-.5-.62c0-.52.67-.78,1.39-1a7.78,7.78,0,0,1,5.92.59,5.38,5.38,0,0,1,2.09,1.72,25.62,25.62,0,0,0,3.92-4.61,2.43,2.43,0,0,0,.5-1.09c0-.11-.29-.18-.7-.18a21.53,21.53,0,0,0-3.64.44c-1.57.3-3.24.69-5,1.17a39.86,39.86,0,0,0-4.8,1.71c-1.1.46-2,.78-2.57,1a6.09,6.09,0,0,1-1.83.3,3.86,3.86,0,0,1-1.9-.63,8.61,8.61,0,0,1-2-1.66,7.79,7.79,0,0,1-1.44-2.33,2.65,2.65,0,0,1-.2-1c0-.86.52-.93.68-.93a2,2,0,0,1,.86.32,5.12,5.12,0,0,0,.87.38,8.86,8.86,0,0,0,2.94.37A24.44,24.44,0,0,0,71,82.38c1.87-.23,4.38-.6,7.48-1.1s5.12-.86,6-1.08a12.47,12.47,0,0,0,1.19-.41,5.94,5.94,0,0,1,1.91-.51,2.15,2.15,0,0,1,1.26.6,19.94,19.94,0,0,1,3.26,3h0c1.5,1.66,1.69,2.26,1.69,2.61a1,1,0,0,1-.52.83,9.29,9.29,0,0,1-2,.94c-.49.19-1,.41-1.47.63L87.57,89c-2.88,1.61-5.1,2.76-6.6,3.44l-.07.13c-.26.84-.76,2.19-1.48,4.09a42.73,42.73,0,0,1-5.85,10.22,25.56,25.56,0,0,1-9.31,7.61A1.66,1.66,0,0,1,63.45,114.83ZM73.29,88a5.73,5.73,0,0,1,2.08,1.1,2.87,2.87,0,0,1,1,2.24A20.87,20.87,0,0,1,75,97.41,44.79,44.79,0,0,1,70.81,106a32,32,0,0,1-6.45,7.62A25,25,0,0,0,73,106.46a42,42,0,0,0,5.74-10c.72-1.88,1.21-3.22,1.49-4.1l.15-.31a.41.41,0,0,1,.19-.18c1.47-.65,3.71-1.81,6.66-3.46l2.14-1.2c.52-.24,1-.46,1.55-.66a8.52,8.52,0,0,0,1.91-.87c.17-.11.17-.18.17-.2s-.07-.53-1.49-2.11a20,20,0,0,0-3.16-2.86c-.5-.4-.74-.45-.81-.45a5.07,5.07,0,0,0-1.62.45,13.28,13.28,0,0,1-1.28.44c-.91.24-2.9.6-6.07,1.1s-5.63.87-7.5,1.1a25.77,25.77,0,0,1-3.57.26A9.34,9.34,0,0,1,64.3,83a5.2,5.2,0,0,1-1-.43l-.42-.2a.58.58,0,0,0,0,.15,2.1,2.1,0,0,0,.15.69,7,7,0,0,0,1.3,2.09,7.73,7.73,0,0,0,1.8,1.51,3.18,3.18,0,0,0,1.52.53,5.57,5.57,0,0,0,1.61-.26c.59-.19,1.43-.51,2.5-1a41.07,41.07,0,0,1,4.89-1.73c1.75-.49,3.44-.89,5-1.19a22.14,22.14,0,0,1,3.78-.45c1.26,0,1.45.58,1.45.93a3,3,0,0,1-.62,1.49,26.62,26.62,0,0,1-4.39,5.09.38.38,0,0,1-.34.09.35.35,0,0,1-.27-.22,4.06,4.06,0,0,0-2-1.81,7,7,0,0,0-5.36-.53A4.33,4.33,0,0,0,73.29,88Z"/><path class="cls-2" d="M100.26,112.82c0-.11.27-.34.82-.68A55.86,55.86,0,0,0,114.44,102a43.27,43.27,0,0,0,7-9.46q2-4.08,2-5.19c0-.17-.1-.26-.3-.26s-1.33.18-3.41.54-4.21.78-6.41,1.26a48.23,48.23,0,0,0-5.15,1.38,6.07,6.07,0,0,1-1.84.38,3.5,3.5,0,0,1-2.23-.85,6.51,6.51,0,0,1-1.87-2.37,5.79,5.79,0,0,1-.71-2.35.54.54,0,0,1,.11-.35.32.32,0,0,1,.23-.13,2.11,2.11,0,0,1,.86.35,8.52,8.52,0,0,0,1.83.7,6.69,6.69,0,0,0,1.6.16c1.41,0,4.07-.18,8-.52a56.87,56.87,0,0,0,7.67-1,9.93,9.93,0,0,0,1.59-.6c.35-.14.68-.28,1-.4a2.32,2.32,0,0,1,.79-.2,4.15,4.15,0,0,1,1.7.8,13.36,13.36,0,0,1,2.21,1.8q1,1,1,1.56a1.56,1.56,0,0,1-.26.84,7.58,7.58,0,0,1-.82,1,10,10,0,0,0-1.59,2.14,38.41,38.41,0,0,1-6.5,9.66,37,37,0,0,1-8.43,6.69,74.74,74.74,0,0,1-11.32,5.23,2.22,2.22,0,0,1-.73.22C100.35,113,100.26,113,100.26,112.82ZM129,83.69A4,4,0,0,1,129,78a4,4,0,0,1,2.91-1.18A3.89,3.89,0,0,1,134.78,78,4,4,0,0,1,136,80.86a4.12,4.12,0,0,1-4,4A4,4,0,0,1,129,83.69Zm4.84-.9a2.62,2.62,0,0,0,.82-1.93,2.8,2.8,0,0,0-.82-2,2.61,2.61,0,0,0-1.93-.83,2.71,2.71,0,0,0-2,.83,2.8,2.8,0,0,0-.82,2,2.62,2.62,0,0,0,.82,1.93,2.7,2.7,0,0,0,2,.82A2.6,2.6,0,0,0,133.85,82.79Z"/><path class="cls-2" d="M100.52,113.41a.57.57,0,0,1-.63-.59c0-.28.24-.53,1-1a56,56,0,0,0,13.29-10.08,43,43,0,0,0,7-9.38c1.52-3,1.94-4.34,2-4.89-.27,0-1,.13-3.26.52s-4.23.78-6.4,1.26a46.88,46.88,0,0,0-5.1,1.36,6.4,6.4,0,0,1-2,.41,3.94,3.94,0,0,1-2.47-.94,7,7,0,0,1-2-2.49,6.11,6.11,0,0,1-.74-2.52.89.89,0,0,1,.19-.59.66.66,0,0,1,.52-.26,2.35,2.35,0,0,1,1,.39,8.57,8.57,0,0,0,1.72.67,7.22,7.22,0,0,0,1.52.14c1.38,0,4.06-.17,8-.51a57.78,57.78,0,0,0,7.62-1,11.4,11.4,0,0,0,1.53-.58l1-.41a2.6,2.6,0,0,1,.93-.22c.25,0,.72.09,1.9.85a13.75,13.75,0,0,1,2.28,1.85,3.05,3.05,0,0,1,1.09,1.83,1.92,1.92,0,0,1-.32,1,6.84,6.84,0,0,1-.85,1.06,9.47,9.47,0,0,0-1.53,2.06,39.33,39.33,0,0,1-6.56,9.74,37.44,37.44,0,0,1-8.52,6.76,75,75,0,0,1-11.38,5.26A2.29,2.29,0,0,1,100.52,113.41Zm22.69-26.7a.62.62,0,0,1,.68.63c0,.52-.22,1.63-2.08,5.36a43.71,43.71,0,0,1-7.1,9.55,55.9,55.9,0,0,1-13.21,10.08,76.81,76.81,0,0,0,10.89-5.06,37.47,37.47,0,0,0,8.34-6.63,38.81,38.81,0,0,0,6.44-9.56,10.11,10.11,0,0,1,1.65-2.24,7.46,7.46,0,0,0,.77-1,1.2,1.2,0,0,0,.2-.64c0-.12-.09-.49-.88-1.3a12.64,12.64,0,0,0-2.15-1.75c-1-.66-1.38-.73-1.49-.73a2.05,2.05,0,0,0-.65.16l-1,.41a12.38,12.38,0,0,1-1.65.62,58.77,58.77,0,0,1-7.73,1c-3.92.35-6.61.52-8,.52a7.58,7.58,0,0,1-1.69-.16,9.87,9.87,0,0,1-1.9-.74,1.92,1.92,0,0,0-.7-.3s0,0,0,.1a5.4,5.4,0,0,0,.67,2.19,6,6,0,0,0,1.76,2.23,3.14,3.14,0,0,0,2,.78,5.67,5.67,0,0,0,1.72-.37,48.74,48.74,0,0,1,5.19-1.38c2.18-.48,4.34-.91,6.43-1.27C122.52,86.77,123.06,86.71,123.21,86.71Zm8.71-1.44A4.35,4.35,0,0,1,128.74,84a4.39,4.39,0,0,1,0-6.26,4.37,4.37,0,0,1,3.18-1.29A4.23,4.23,0,0,1,135,77.7a4.31,4.31,0,0,1,1.29,3.16,4.47,4.47,0,0,1-4.41,4.41Zm0-8.11a3.6,3.6,0,0,0-2.65,1.07,3.65,3.65,0,0,0,0,5.2,3.6,3.6,0,0,0,2.65,1.09,3.72,3.72,0,0,0,3.66-3.66,3.54,3.54,0,0,0-1.07-2.63A3.49,3.49,0,0,0,131.92,77.16Zm0,6.82a3.11,3.11,0,0,1-2.28-.92,3,3,0,0,1-.92-2.2,3.19,3.19,0,0,1,.92-2.3,3.06,3.06,0,0,1,2.28-1,3,3,0,0,1,2.2,1,3.19,3.19,0,0,1,.92,2.3,3,3,0,0,1-.92,2.2A3,3,0,0,1,131.92,84Zm0-5.62a2.3,2.3,0,0,0-1.74.73,2.38,2.38,0,0,0-.71,1.77,2.28,2.28,0,0,0,.7,1.67,2.38,2.38,0,0,0,1.75.7,2.39,2.39,0,0,0,2.37-2.37,2.44,2.44,0,0,0-.7-1.77A2.24,2.24,0,0,0,131.92,78.36Z"/><path class="cls-2" d="M144.58,114.88c0-.08.06-.17.19-.25s.3-.19.5-.3a28.2,28.2,0,0,0,9.16-6.89,21,21,0,0,0,4.27-8.56,51.5,51.5,0,0,0,1.11-11.58c0-.72,0-1.71-.09-3a5,5,0,0,0-.4-1.74,3.2,3.2,0,0,0-1.1-1.4,3.92,3.92,0,0,0-.94-.47,5.55,5.55,0,0,1-.58-.19.23.23,0,0,1-.15-.24c0-.23.39-.46,1.16-.71a7.47,7.47,0,0,1,2.23-.36,3.25,3.25,0,0,1,.94.09,8,8,0,0,1,3,1.52c.91.73,1.37,1.35,1.37,1.87a4.23,4.23,0,0,1-.34,1.15,4,4,0,0,0-.43,1.59c0,.6,0,1.45-.09,2.53-.06.69-.08,1.19-.08,1.5a39.64,39.64,0,0,1-1.38,10.62,19.28,19.28,0,0,1-5.47,8.63q-4.14,4-12,6.2l-.65.12C144.65,115.05,144.58,115,144.58,114.88Zm4.63-14.37a4,4,0,0,1-1.09-1.26,3.57,3.57,0,0,1-.45-1.78l.08-1a50.53,50.53,0,0,0,.35-5.06,19.72,19.72,0,0,0-.43-5.19,2.56,2.56,0,0,0-2.23-1.93c-.35-.06-.52-.16-.52-.3s.19-.36.56-.65a6.49,6.49,0,0,1,1.37-.77,4.1,4.1,0,0,1,1.59-.34,2.59,2.59,0,0,1,.86.13,6.87,6.87,0,0,1,2.62,1.22,2,2,0,0,1,.73,1.48,3.75,3.75,0,0,1-.13.84,5,5,0,0,0-.17.79,22.55,22.55,0,0,0-.18,3.26c0,.77,0,2,.09,3.56l.17,2.06A23.48,23.48,0,0,1,152.6,98,3.58,3.58,0,0,1,152,100a1.88,1.88,0,0,1-1.59.94A2,2,0,0,1,149.21,100.51Z"/><path class="cls-2" d="M144.85,115.42c-.47,0-.64-.28-.64-.54a.7.7,0,0,1,.36-.57c.13-.09.3-.19.51-.31a27.88,27.88,0,0,0,9.06-6.8,20.7,20.7,0,0,0,4.19-8.41,51.23,51.23,0,0,0,1.11-11.49c0-.72,0-1.71-.09-3a4.89,4.89,0,0,0-.38-1.61,2.75,2.75,0,0,0-1-1.23,3.64,3.64,0,0,0-.84-.42,5.89,5.89,0,0,1-.62-.21.6.6,0,0,1-.38-.58c0-.54.72-.84,1.43-1.06a7.58,7.58,0,0,1,2.34-.38A3.76,3.76,0,0,1,161,79a8.41,8.41,0,0,1,3.12,1.59c1,.81,1.51,1.51,1.51,2.16a3.69,3.69,0,0,1-.37,1.29,3.93,3.93,0,0,0-.4,1.45c0,.6,0,1.44-.08,2.55-.06.68-.09,1.18-.09,1.48a40.12,40.12,0,0,1-1.39,10.73,19.75,19.75,0,0,1-5.57,8.79c-2.79,2.67-6.89,4.79-12.19,6.29l-.67.13Zm12.2-35.15.34.1a4.19,4.19,0,0,1,1,.52,3.5,3.5,0,0,1,1.23,1.57,5.48,5.48,0,0,1,.44,1.86c.06,1.25.09,2.25.09,3A51.66,51.66,0,0,1,159.06,99a21.47,21.47,0,0,1-4.34,8.71,28.05,28.05,0,0,1-8.74,6.7c4.85-1.44,8.64-3.44,11.23-5.92a19.06,19.06,0,0,0,5.37-8.46,39.42,39.42,0,0,0,1.36-10.52c0-.32,0-.84.09-1.53.05-1.09.08-1.91.08-2.5a4.3,4.3,0,0,1,.46-1.74,3.55,3.55,0,0,0,.31-1c0-.23-.16-.72-1.23-1.58a7.75,7.75,0,0,0-2.86-1.45,2.9,2.9,0,0,0-.85-.07,7.09,7.09,0,0,0-2.12.34A3.61,3.61,0,0,0,157.05,80.27Zm-6.68,21.09a2.42,2.42,0,0,1-1.38-.55,4.39,4.39,0,0,1-1.2-1.38,3.91,3.91,0,0,1-.5-2l.09-1a50,50,0,0,0,.34-5,19.49,19.49,0,0,0-.41-5.08,2.18,2.18,0,0,0-1.92-1.67c-.7-.12-.84-.43-.84-.67s.2-.56.7-.94a6.67,6.67,0,0,1,1.46-.83,3.94,3.94,0,0,1,2.71-.22,7.24,7.24,0,0,1,2.75,1.3,2.37,2.37,0,0,1,.85,1.76,4,4,0,0,1-.14.93,5.74,5.74,0,0,0-.16.75,23.79,23.79,0,0,0-.17,3.21c0,.77,0,2,.08,3.55l.18,2c.11,1.1.17,1.89.17,2.39a4,4,0,0,1-.71,2.27A2.24,2.24,0,0,1,150.37,101.36Zm-5-17.41.09,0A2.92,2.92,0,0,1,148,86.15a20.08,20.08,0,0,1,.44,5.31,50.81,50.81,0,0,1-.34,5.1l-.09.94a3.13,3.13,0,0,0,.41,1.56,3.5,3.5,0,0,0,1,1.15h0a1.72,1.72,0,0,0,.93.4,1.54,1.54,0,0,0,1.28-.78,3.19,3.19,0,0,0,.58-1.85c0-.47-.06-1.25-.17-2.32l-.17-2.07c-.06-1.61-.09-2.81-.09-3.59a25.55,25.55,0,0,1,.17-3.32c0-.2.09-.48.18-.83a2.88,2.88,0,0,0,.12-.74,1.62,1.62,0,0,0-.61-1.21,6.78,6.78,0,0,0-2.47-1.14A3.18,3.18,0,0,0,147,83a5.75,5.75,0,0,0-1.29.72A3.49,3.49,0,0,0,145.41,84Z"/></g></g></svg>