<svg xmlns="http://www.w3.org/2000/svg" viewBox="0 0 32 32"><defs><style>.cls-1{fill:#fff;}.cls-2{fill:#141414;}</style></defs><g id="レイヤー_2" data-name="レイヤー 2"><g id="favicon"><rect class="cls-1" width="32" height="32"/><path class="cls-2" d="M7,16.72a1.39,1.39,0,0,0,1-.43A3,3,0,0,0,8.84,14a9.6,9.6,0,0,0-.75-3.42.14.14,0,0,0-.15-.1l-.28,0a.15.15,0,0,0-.14.16,6.71,6.71,0,0,1-.24,2.22,3.88,3.88,0,0,1-.69,1.42A1.93,1.93,0,0,0,6,15.62a1.06,1.06,0,0,0,.31.79A1,1,0,0,0,7,16.72Z"/><path class="cls-2" d="M24.48,22.85a11.53,11.53,0,0,0-4.28-1.41.15.15,0,0,0-.16.08l-.15.25a.16.16,0,0,0,.05.21,9.69,9.69,0,0,1,2,1.72,8.34,8.34,0,0,1,1.27,1.84,1.42,1.42,0,0,0,1.18.62,1.44,1.44,0,0,0,1-.4,1.33,1.33,0,0,0,.43-1C25.86,24.11,25.4,23.46,24.48,22.85Z"/><path class="cls-2" d="M17.63,21.22a.23.23,0,0,0,0-.14v-.5h4.16v.8a.15.15,0,0,0,.15.15h.45a3.71,3.71,0,0,0,1.44-.25,1.89,1.89,0,0,0,.82-.52.19.19,0,0,0,0-.1c-.09-1.59-.14-3.29-.17-5.06V11.35a1.46,1.46,0,0,0,.78-.45.21.21,0,0,0,0-.11c0-.11-.06-.27-.51-.68a10.21,10.21,0,0,0-1-.81c-.5-.35-.65-.4-.75-.4a.44.44,0,0,0-.29.13,3.52,3.52,0,0,0-.29.32l-.23.3-.47.63H19.62c.33-.49.73-1.18,1.2-2h4.5c.49,0,.66-.25.71-.5S26,7.46,25.52,7a10.62,10.62,0,0,0-1-.86h0c-.54-.41-.67-.44-.76-.44a.46.46,0,0,0-.33.19,2.52,2.52,0,0,0-.27.34l-.75,1H16.29c-1.11,0-2.07-.08-2.85-.17a.14.14,0,0,0-.14.06.15.15,0,0,0,0,.16l.54,1.1a.15.15,0,0,0,.16.08,18.31,18.31,0,0,1,2.82-.3h1.37c-.06,1-.11,1.67-.15,2h-.24l-2.6-1.11a.16.16,0,0,0-.16,0,.14.14,0,0,0,0,.14c0,.37.07.82.08,1.36L13,9.18a.14.14,0,0,0-.14,0,.16.16,0,0,0-.1.11,14.28,14.28,0,0,1-.88,2.93c0-.79,0-1.84,0-3.13,0-.44,0-1.13,0-2l.31-.19c.11-.06.25-.17.25-.32s0-.44-3.25-.74a.18.18,0,0,0-.12,0,.16.16,0,0,0,0,.13c.08.51.17,2.21.26,5.05l0,.89c0,2.29-.1,4.23-.26,5.79a17.18,17.18,0,0,1-1,4.28A10.87,10.87,0,0,1,6,25.48a.15.15,0,0,0,0,.19l.25.35a.16.16,0,0,0,.21,0A10.52,10.52,0,0,0,9.65,23a11.79,11.79,0,0,0,1.54-3.79,9.49,9.49,0,0,1,.88,1.6,6.6,6.6,0,0,1,.51,1.93.47.47,0,0,0,.05.1,1.37,1.37,0,0,0,2,0A1.69,1.69,0,0,0,15,21.66a3.05,3.05,0,0,0-.91-2A6.32,6.32,0,0,0,11.44,18a36.09,36.09,0,0,0,.37-3.95,32,32,0,0,0,3.12-2.4l.13,0v10a.15.15,0,0,0,.15.15h.43a4.08,4.08,0,0,0,1.19-.16,13.63,13.63,0,0,1-2,2,14.84,14.84,0,0,1-3.07,2,.18.18,0,0,0-.07.1.13.13,0,0,0,0,.12l.15.26a.17.17,0,0,0,.13.07h0a17.17,17.17,0,0,0,4.08-1.15,11.78,11.78,0,0,0,3.16-1.87l.35,0c.09,0,.32-.07.32-.26S20,22.57,17.63,21.22Zm0-7.88V11.16h4.16v2.18Zm4.16.93v2.21H17.67V14.27Zm0,3.12v2.28H17.67V17.39Z"/></g></g></svg>